<?xml version="1.0" standalone="no"?>
<!DOCTYPE svg PUBLIC "-//W3C//DTD SVG 1.1//EN" "http://www.w3.org/Graphics/SVG/1.1/DTD/svg11.dtd" >
<svg xmlns="http://www.w3.org/2000/svg" xmlns:xlink="http://www.w3.org/1999/xlink" version="1.1">
<metadata>
Created by FontForge 20170924 at Sun Feb  9 16:34:38 2020
 By www-data
Copyright \(c\) 2020 by MadeType. All rights reserved.
</metadata>
<defs>
<font id="MADETOMMY" horiz-adv-x="572" >
  <font-face 
    font-family="MADE TOMMY"
    font-weight="400"
    font-stretch="normal"
    units-per-em="1000"
    panose-1="2 0 5 3 0 0 0 2 0 4"
    ascent="800"
    descent="-200"
    x-height="507"
    cap-height="700"
    bbox="-53 -252 1234 966"
    underline-thickness="50"
    underline-position="-100"
    unicode-range="U+0020-F6C3"
  />
<missing-glyph horiz-adv-x="270" 
 />
    <glyph glyph-name=".notdef" horiz-adv-x="270" 
 />
    <glyph glyph-name="B" unicode="B" horiz-adv-x="604" 
d="M451 365c70 -26 113 -78 113 -162c0 -117 -79 -203 -240 -203h-254v700h227c157 0 238 -74 238 -186c0 -67 -30 -117 -84 -147v-2zM297 609h-127v-211h118c75 0 147 22 147 108c0 81 -66 103 -138 103zM324 91c83 0 137 38 137 112c0 86 -71 111 -146 111h-145v-223h154z
" />
    <glyph glyph-name="C" unicode="C" horiz-adv-x="704" 
d="M401 81c85 0 151 37 195 91l83 -55c-64 -80 -162 -130 -278 -130c-207 0 -356 158 -356 363s149 362 356 362c116 0 214 -49 278 -130l-83 -54c-44 54 -110 91 -195 91c-163 0 -254 -133 -254 -269s91 -269 254 -269z" />
    <glyph glyph-name="D" unicode="D" horiz-adv-x="678" 
d="M268 700c237 0 365 -153 365 -350c0 -198 -128 -350 -365 -350h-198v700h198zM268 91c166 0 264 102 264 259s-98 259 -264 259h-98v-518h98z" />
    <glyph glyph-name="E" unicode="E" horiz-adv-x="516" 
d="M171 91h295v-91h-396v700h386v-91h-285v-201h263v-91h-263v-226z" />
    <glyph glyph-name="F" unicode="F" horiz-adv-x="521" 
d="M471 609h-301v-208h263v-91h-263v-310h-100v700h401v-91z" />
    <glyph glyph-name="G" unicode="G" horiz-adv-x="782" 
d="M410 378h312v-378h-64l-9 114c-48 -79 -129 -127 -248 -127c-208 0 -356 158 -356 363s148 362 356 362c116 0 214 -49 278 -129l-84 -55c-43 54 -109 91 -194 91c-164 0 -254 -133 -254 -269s90 -269 254 -269c146 0 226 91 242 206h-233v91z" />
    <glyph glyph-name="H" unicode="H" horiz-adv-x="672" 
d="M502 700h100v-700h-100v307h-332v-307h-100v700h100v-301h332v301z" />
    <glyph glyph-name="I" unicode="I" horiz-adv-x="240" 
d="M70 700h100v-700h-100v700z" />
    <glyph glyph-name="J" unicode="J" horiz-adv-x="568" 
d="M398 700h100v-474c0 -137 -62 -239 -230 -239c-145 0 -229 85 -238 196l101 19c5 -52 38 -121 137 -121c107 0 130 76 130 145v474z" />
    <glyph glyph-name="K" unicode="K" horiz-adv-x="603" 
d="M583 0h-129l-284 327v-327h-100v700h100v-335l268 335h119l-281 -346z" />
    <glyph glyph-name="L" unicode="L" horiz-adv-x="498" 
d="M170 91h288v-91h-388v700h100v-609z" />
    <glyph glyph-name="M" unicode="M" horiz-adv-x="858" 
d="M688 700h100v-700h-100v515l-241 -355h-36l-241 355v-515h-100v700h100l259 -385z" />
    <glyph glyph-name="N" unicode="N" horiz-adv-x="690" 
d="M520 700h100v-700h-87l-363 516v-516h-100v700h87l363 -516v516z" />
    <glyph glyph-name="O" unicode="O" horiz-adv-x="801" 
d="M401 712c207 0 355 -157 355 -362s-148 -363 -355 -363c-208 0 -356 158 -356 363s148 362 356 362zM401 81c163 0 254 133 254 269s-91 269 -254 269s-254 -133 -254 -269s91 -269 254 -269z" />
    <glyph glyph-name="P" unicode="P" horiz-adv-x="586" 
d="M293 700c158 0 253 -101 253 -229s-95 -228 -253 -228h-123v-243h-100v700h223zM293 334c94 0 150 55 150 137s-56 138 -150 138h-123v-275h123z" />
    <glyph glyph-name="Q" unicode="Q" horiz-adv-x="801" 
d="M756 350c0 -97 -32 -182 -89 -246l71 -72l-63 -63l-75 76c-56 -37 -124 -58 -199 -58c-208 0 -356 158 -356 363s148 362 356 362c207 0 355 -157 355 -362zM401 81c50 0 93 13 129 34l-106 107l63 63l110 -110c38 49 57 111 57 175c0 136 -90 269 -253 269
s-254 -133 -254 -269s91 -269 254 -269z" />
    <glyph glyph-name="R" unicode="R" horiz-adv-x="598" 
d="M578 0h-120l-145 271c-8 -1 -17 -1 -27 -1h-116v-270h-100v700h216c160 0 252 -94 252 -215c0 -85 -45 -156 -126 -191zM170 361h116c97 0 149 49 149 124s-52 124 -149 124h-116v-248z" />
    <glyph glyph-name="S" unicode="S" horiz-adv-x="559" 
d="M332 388c136 -32 197 -81 197 -194c0 -98 -67 -207 -247 -207c-107 0 -218 48 -252 158l99 31c10 -46 62 -95 155 -95c76 0 143 33 143 105c0 95 -85 99 -196 126c-141 34 -173 108 -173 199c0 118 101 201 231 201c100 0 183 -54 212 -151l-98 -24
c-14 42 -50 82 -124 82c-67 0 -121 -41 -121 -108c0 -89 85 -103 174 -123z" />
    <glyph glyph-name="T" unicode="T" horiz-adv-x="534" 
d="M494 700v-91h-177v-609h-100v609h-177v91h454z" />
    <glyph glyph-name="U" unicode="U" horiz-adv-x="672" 
d="M501 700h101v-434c0 -182 -96 -279 -266 -279c-171 0 -266 97 -266 279v434h100v-416c0 -150 65 -202 166 -202c100 0 165 52 165 202v416z" />
    <glyph glyph-name="V" unicode="V" horiz-adv-x="675" 
d="M547 700h108l-261 -700h-113l-261 700h108l209 -593z" />
    <glyph glyph-name="W" unicode="W" horiz-adv-x="988" 
d="M859 700h109l-226 -700h-95l-153 496l-154 -496h-95l-225 700h108l165 -543l166 543h69l166 -543z" />
    <glyph glyph-name="X" unicode="X" horiz-adv-x="626" 
d="M606 0h-121l-172 269l-171 -269h-122l228 356l-210 344h121l154 -262l154 262h122l-210 -344z" />
    <glyph glyph-name="Y" unicode="Y" horiz-adv-x="662" 
d="M642 700l-261 -438v-262h-100v262l-261 438h112l199 -348l198 348h113z" />
    <glyph glyph-name="Z" unicode="Z" horiz-adv-x="574" 
d="M170 91h364v-91h-494v73l364 536h-347v91h468v-74z" />
    <glyph glyph-name="a" unicode="a" horiz-adv-x="537" 
d="M278 519c146 0 194 -92 194 -213v-306h-91v70c-23 -39 -86 -83 -166 -83c-96 0 -180 58 -180 149c0 159 193 163 264 163h82c0 77 -16 137 -121 137c-53 0 -109 -27 -131 -45l-64 49c56 51 133 79 213 79zM381 145v83h-35c-94 0 -217 1 -217 -88c0 -39 25 -79 106 -79
c87 0 140 61 146 84z" />
    <glyph glyph-name="b" unicode="b" horiz-adv-x="628" 
d="M340 519c158 0 253 -133 253 -266s-95 -266 -253 -266c-88 0 -146 36 -184 84v-71h-91v700h91v-264c38 47 96 83 184 83zM331 74c105 0 168 77 168 179s-63 180 -168 180c-111 0 -175 -80 -175 -180s64 -179 175 -179z" />
    <glyph glyph-name="c" unicode="c" horiz-adv-x="546" 
d="M301 74c64 0 117 31 147 81l78 -42c-46 -75 -126 -126 -225 -126c-153 0 -266 120 -266 266s113 266 266 266c99 0 179 -51 225 -125l-78 -43c-30 50 -83 82 -147 82c-100 0 -173 -76 -173 -180c0 -103 73 -179 173 -179z" />
    <glyph glyph-name="d" unicode="d" horiz-adv-x="628" 
d="M472 700h91v-700h-91v71c-38 -48 -96 -84 -184 -84c-158 0 -253 133 -253 266s95 266 253 266c88 0 146 -36 184 -83v264zM297 74c111 0 175 79 175 179s-64 180 -175 180c-105 0 -168 -78 -168 -180s63 -179 168 -179z" />
    <glyph glyph-name="e" unicode="e" horiz-adv-x="573" 
d="M292 519c138 0 267 -116 243 -305h-403c14 -83 76 -140 175 -140c55 0 105 21 133 57l75 -48c-45 -61 -119 -96 -208 -96c-168 0 -272 120 -272 266s108 266 257 266zM132 292h311c-12 86 -65 141 -151 141c-87 0 -146 -57 -160 -141z" />
    <glyph glyph-name="f" unicode="f" horiz-adv-x="354" 
d="M300 636c-82 0 -92 -53 -93 -129h117v-87h-117v-420h-91v420h-81v87h81c0 106 35 205 174 205c14 0 22 0 34 -2v-75c-6 0 -17 1 -24 1z" />
    <glyph glyph-name="g" unicode="g" horiz-adv-x="617" 
d="M460 507h92v-454c0 -144 -77 -255 -260 -255c-100 0 -189 40 -230 102l78 46c19 -28 68 -62 152 -62c121 0 168 77 168 178v39c-34 -49 -89 -87 -172 -87c-149 0 -253 127 -253 253c0 125 104 252 253 252c83 0 138 -38 172 -86v74zM297 100c97 0 163 71 163 167
c0 95 -66 166 -163 166c-95 0 -168 -71 -168 -166c0 -96 73 -167 168 -167z" />
    <glyph glyph-name="h" unicode="h" horiz-adv-x="573" 
d="M313 519c114 0 195 -95 195 -202v-317h-92v291c0 71 -30 142 -125 142c-96 0 -135 -83 -135 -142v-291h-91v700h91v-264c30 45 80 83 157 83z" />
    <glyph glyph-name="i" unicode="i" horiz-adv-x="222" 
d="M65 0v507h92v-507h-92zM111 597c-29 0 -52 23 -52 52c0 28 23 52 52 52s52 -24 52 -52c0 -29 -23 -52 -52 -52z" />
    <glyph glyph-name="j" unicode="j" horiz-adv-x="222" 
d="M66 9v498h91v-516c0 -95 -53 -176 -176 -176c-13 0 -24 1 -34 2v81c97 -3 119 43 119 111zM111 597c-28 0 -52 23 -52 52c0 28 24 52 52 52c29 0 52 -24 52 -52c0 -29 -23 -52 -52 -52z" />
    <glyph glyph-name="k" unicode="k" horiz-adv-x="502" 
d="M254 270l228 -270h-119l-207 243v-243h-91v700h91v-419l184 226h111z" />
    <glyph glyph-name="l" unicode="l" horiz-adv-x="221" 
d="M65 700h91v-700h-91v700z" />
    <glyph glyph-name="m" unicode="m" horiz-adv-x="843" 
d="M600 519c96 0 178 -77 178 -184v-335h-91v308c0 72 -35 125 -109 125c-71 0 -111 -60 -111 -125v-308h-91v308c0 72 -35 125 -108 125c-72 0 -112 -60 -112 -125v-308h-91v507h91v-60c28 40 72 72 136 72c61 0 115 -32 146 -82c32 45 86 82 162 82z" />
    <glyph glyph-name="n" unicode="n" 
d="M313 519c114 0 194 -95 194 -202v-317h-91v291c0 71 -30 142 -125 142c-96 0 -135 -83 -135 -142v-291h-91v507h91v-71c30 45 80 83 157 83z" />
    <glyph glyph-name="o" unicode="o" horiz-adv-x="602" 
d="M301 519c153 0 266 -120 266 -266s-113 -266 -266 -266s-266 120 -266 266s113 266 266 266zM301 74c100 0 173 76 173 179c0 104 -73 180 -173 180s-172 -76 -172 -180c0 -103 72 -179 172 -179z" />
    <glyph glyph-name="p" unicode="p" horiz-adv-x="628" 
d="M341 519c158 0 252 -133 252 -266s-94 -266 -252 -266c-88 0 -147 36 -185 84v-264h-91v700h91v-71c38 47 97 83 185 83zM332 74c104 0 168 77 168 179s-64 180 -168 180c-112 0 -176 -80 -176 -180s64 -179 176 -179z" />
    <glyph glyph-name="q" unicode="q" horiz-adv-x="628" 
d="M472 507h91v-700h-91v264c-38 -48 -96 -84 -184 -84c-158 0 -253 133 -253 266s95 266 253 266c88 0 146 -36 184 -83v71zM297 74c111 0 175 79 175 179s-64 180 -175 180c-105 0 -168 -78 -168 -180s63 -179 168 -179z" />
    <glyph glyph-name="r" unicode="r" horiz-adv-x="360" 
d="M156 419c34 68 104 100 169 100v-103c-150 18 -169 -96 -169 -189v-227h-91v507h91v-88z" />
    <glyph glyph-name="s" unicode="s" horiz-adv-x="453" 
d="M258 294c124 -26 165 -66 165 -142c0 -90 -64 -165 -199 -165c-100 0 -184 40 -204 116l89 30c8 -26 35 -62 117 -62c66 0 103 27 103 72c0 59 -85 59 -155 75c-95 21 -136 67 -136 142c0 93 77 159 187 159c82 0 155 -42 173 -117l-85 -23c-9 28 -39 58 -96 58
c-50 0 -87 -28 -87 -70c0 -57 70 -61 128 -73z" />
    <glyph glyph-name="t" unicode="t" horiz-adv-x="367" 
d="M317 420h-117v-222c0 -72 1 -120 80 -120c15 0 26 1 37 2v-80c-13 -3 -29 -5 -49 -5c-110 0 -159 59 -159 170v255h-79v87h79v106h91v-106h117v-87z" />
    <glyph glyph-name="u" unicode="u" 
d="M416 507h91v-507h-91v70c-30 -45 -80 -83 -156 -83c-114 0 -195 95 -195 202v318h91v-291c0 -72 30 -142 125 -142c96 0 135 82 135 142v291z" />
    <glyph glyph-name="v" unicode="v" horiz-adv-x="538" 
d="M417 507h101l-197 -507h-104l-197 507h102l147 -398z" />
    <glyph glyph-name="w" unicode="w" horiz-adv-x="774" 
d="M653 507h101l-170 -507h-86l-111 345l-110 -345h-86l-171 507h102l113 -374l119 374h66l119 -374z" />
    <glyph glyph-name="x" unicode="x" horiz-adv-x="510" 
d="M490 0h-111l-124 183l-124 -183h-111l177 261l-169 246h112l114 -179l116 179h112l-170 -247z" />
    <glyph glyph-name="y" unicode="y" horiz-adv-x="537" 
d="M416 507h101l-277 -700h-98l90 219l-212 481h101l156 -366z" />
    <glyph glyph-name="z" unicode="z" horiz-adv-x="474" 
d="M160 86h269v-86h-384v74l259 346h-251v87h367v-74z" />
    <glyph glyph-name="zero" unicode="0" horiz-adv-x="636" 
d="M318 712c201 0 273 -186 273 -362s-72 -363 -273 -363s-273 187 -273 363s72 362 273 362zM318 81c134 0 173 149 173 269s-39 269 -173 269s-173 -149 -173 -269s39 -269 173 -269z" />
    <glyph glyph-name="one" unicode="1" horiz-adv-x="438" 
d="M244 700h64v-700h-100v572l-133 -89l-45 73z" />
    <glyph glyph-name="two" unicode="2" horiz-adv-x="542" 
d="M194 90h288v-90h-431v69c58 64 85 95 153 175c78 91 169 190 169 262c0 68 -38 117 -109 117c-77 0 -111 -59 -121 -106l-93 22c27 113 115 173 224 173c114 0 198 -91 198 -206c0 -111 -104 -207 -278 -416z" />
    <glyph glyph-name="three" unicode="3" horiz-adv-x="568" 
d="M398 370c80 -28 125 -85 125 -163c0 -127 -90 -220 -242 -220c-116 0 -219 64 -236 154l93 21c8 -35 50 -86 143 -86c85 0 143 44 143 131c0 92 -90 110 -150 110h-59v84h59c60 0 124 25 124 111c0 57 -37 111 -117 111c-75 0 -111 -43 -122 -82l-92 20
c25 93 116 151 214 151c131 0 210 -83 210 -192c0 -66 -34 -120 -93 -150z" />
    <glyph glyph-name="four" unicode="4" horiz-adv-x="627" 
d="M577 246v-89h-91v-157h-100v157h-336v80l293 463h143v-454h91zM160 246h226v356z" />
    <glyph glyph-name="five" unicode="5" horiz-adv-x="569" 
d="M294 452c138 0 230 -98 230 -228c0 -126 -93 -237 -245 -237c-116 0 -216 64 -234 155l92 21c9 -35 50 -87 142 -87c85 0 147 62 147 148c0 91 -60 140 -141 140c-67 0 -116 -36 -136 -59l-80 20l44 375h369v-91h-292l-23 -200c34 25 76 43 127 43z" />
    <glyph glyph-name="six" unicode="6" horiz-adv-x="582" 
d="M291 462c136 0 246 -95 246 -238c0 -126 -93 -237 -246 -237c-152 0 -246 111 -246 237c0 98 53 168 78 206l186 270h113l-173 -243c12 3 27 5 42 5zM291 76c84 0 148 62 148 148c0 92 -69 149 -148 149c-84 0 -148 -60 -148 -149c0 -86 65 -148 148 -148z" />
    <glyph glyph-name="seven" unicode="7" horiz-adv-x="528" 
d="M50 700h428v-76l-247 -624h-101l242 609h-322v91z" />
    <glyph glyph-name="eight" unicode="8" horiz-adv-x="596" 
d="M434 378c72 -35 117 -99 117 -179c0 -125 -102 -212 -253 -212s-253 87 -253 212c0 80 46 144 117 179c-56 34 -81 89 -81 146c0 104 76 188 217 188s218 -84 218 -188c0 -57 -25 -112 -82 -146zM298 623c-74 0 -121 -41 -121 -104c0 -66 55 -105 121 -105
s122 39 122 105c0 63 -47 104 -122 104zM298 76c85 0 148 47 148 126c0 86 -68 125 -148 125c-79 0 -148 -39 -148 -125c0 -79 64 -126 148 -126z" />
    <glyph glyph-name="nine" unicode="9" horiz-adv-x="583" 
d="M291 238c-136 0 -246 95 -246 237c0 127 94 237 246 237c153 0 247 -110 247 -237c0 -98 -53 -168 -79 -206l-185 -269h-113l173 243c-13 -3 -27 -5 -43 -5zM291 623c-83 0 -148 -61 -148 -148c0 -91 70 -148 148 -148c85 0 149 60 149 148c0 87 -65 148 -149 148z" />
    <glyph glyph-name="period" unicode="." horiz-adv-x="225" 
d="M112 112c35 0 63 -28 63 -62c0 -35 -28 -63 -63 -63c-34 0 -62 28 -62 63c0 34 28 62 62 62z" />
    <glyph glyph-name="comma" unicode="," horiz-adv-x="244" 
d="M110 113l84 -48l-115 -176l-59 34z" />
    <glyph glyph-name="colon" unicode=":" horiz-adv-x="245" 
d="M122 112c35 0 63 -28 63 -62c0 -35 -28 -63 -63 -63c-34 0 -62 28 -62 63c0 34 28 62 62 62zM122 394c-34 0 -62 28 -62 63c0 34 28 62 62 62c35 0 63 -28 63 -62c0 -35 -28 -63 -63 -63z" />
    <glyph glyph-name="semicolon" unicode=";" horiz-adv-x="278" 
d="M156 394c-34 0 -62 28 -62 63c0 34 28 62 62 62c35 0 62 -28 62 -62c0 -35 -27 -63 -62 -63zM30 -77l90 190l84 -48l-114 -176z" />
    <glyph glyph-name="exclam" unicode="!" horiz-adv-x="265" 
d="M133 112c34 0 62 -28 62 -62c0 -35 -28 -63 -62 -63c-35 0 -63 28 -63 63c0 34 28 62 63 62zM168 208h-71l-14 492h99z" />
    <glyph glyph-name="question" unicode="?" horiz-adv-x="462" 
d="M233 112c35 0 63 -28 63 -62c0 -35 -28 -63 -63 -63c-34 0 -62 28 -62 63c0 34 28 62 62 62zM336 518c0 52 -37 105 -107 105c-65 0 -101 -46 -109 -89l-90 22c30 106 117 156 209 156c106 0 193 -84 193 -185c0 -156 -152 -175 -152 -319h-94c0 171 150 197 150 310z
" />
    <glyph glyph-name="questiondown" unicode="&#xbf;" horiz-adv-x="462" 
d="M229 394c-35 0 -62 28 -62 63c0 34 27 62 62 62c34 0 62 -28 62 -62c0 -35 -28 -63 -62 -63zM342 -28l90 -22c-30 -106 -117 -156 -208 -156c-107 0 -194 85 -194 185c0 156 152 176 152 319h94c0 -171 -150 -197 -150 -310c0 -52 37 -105 107 -105c65 0 101 46 109 89z
" />
    <glyph glyph-name="exclamdown" unicode="&#xa1;" horiz-adv-x="264" 
d="M132 394c-35 0 -62 28 -62 63c0 34 27 62 62 62c34 0 62 -28 62 -62c0 -35 -28 -63 -62 -63zM96 298h72l14 -491h-100z" />
    <glyph glyph-name="hyphen" unicode="-" horiz-adv-x="461" 
d="M70 342h321v-89h-321v89z" />
    <glyph glyph-name="endash" unicode="&#x2013;" horiz-adv-x="514" 
d="M70 342h374v-89h-374v89z" />
    <glyph glyph-name="emdash" unicode="&#x2014;" horiz-adv-x="567" 
d="M70 342h427v-89h-427v89z" />
    <glyph glyph-name="underscore" unicode="_" horiz-adv-x="426" 
d="M30 -88h366v-81h-366v81z" />
    <glyph glyph-name="plus" unicode="+" horiz-adv-x="532" 
d="M462 342v-89h-151v-151h-89v151h-152v89h152v152h89v-152h151z" />
    <glyph glyph-name="multiply" unicode="&#xd7;" horiz-adv-x="460" 
d="M400 405l-107 -107l107 -107l-63 -63l-107 107l-107 -107l-63 63l107 107l-107 107l63 63l107 -107l107 107z" />
    <glyph glyph-name="divide" unicode="&#xf7;" horiz-adv-x="532" 
d="M70 342h392v-89h-392v89zM266 445c-32 0 -58 27 -58 59s26 59 58 59c33 0 59 -27 59 -59s-26 -59 -59 -59zM266 150c33 0 59 -26 59 -59c0 -32 -26 -58 -59 -58c-32 0 -58 26 -58 58c0 33 26 59 58 59z" />
    <glyph glyph-name="equal" unicode="=" horiz-adv-x="514" 
d="M70 431h374v-89h-374v89zM70 164v89h374v-89h-374z" />
    <glyph glyph-name="notequal" unicode="&#x2260;" horiz-adv-x="514" 
d="M444 342h-137l-39 -89h176v-89h-214l-48 -111h-61l47 111h-98v89h137l38 89h-175v89h214l48 111h61l-48 -111h99v-89z" />
    <glyph glyph-name="less" unicode="&#x3c;" horiz-adv-x="514" 
d="M444 487v-89l-295 -123l295 -123v-89l-374 162v100z" />
    <glyph glyph-name="greater" unicode="&#x3e;" horiz-adv-x="514" 
d="M70 398v89l374 -162v-100l-374 -162v89l295 123z" />
    <glyph glyph-name="plusminus" unicode="&#xb1;" horiz-adv-x="532" 
d="M310 422h152v-89h-152v-151h-89v151h-151v89h151v152h89v-152zM70 0v89h392v-89h-392z" />
    <glyph glyph-name="lessequal" unicode="&#x2264;" horiz-adv-x="514" 
d="M70 0v89h374v-89h-374zM444 559v-89l-276 -101l276 -100v-89l-374 142v95z" />
    <glyph glyph-name="greaterequal" unicode="&#x2265;" horiz-adv-x="514" 
d="M70 89h374v-89h-374v89zM444 417v-95l-374 -142v89l276 100l-276 101v89z" />
    <glyph glyph-name="guillemotleft" unicode="&#xab;" horiz-adv-x="544" 
d="M170 428h98l-120 -177l120 -177h-98l-120 177zM494 428l-120 -177l120 -177h-98l-120 177l120 177h98z" />
    <glyph glyph-name="guillemotright" unicode="&#xbb;" horiz-adv-x="545" 
d="M374 428l121 -177l-121 -177h-97l120 177l-120 177h97zM50 428h98l120 -177l-120 -177h-98l121 177z" />
    <glyph glyph-name="asciitilde" unicode="~" horiz-adv-x="591" 
d="M447 369l84 -17c-16 -80 -59 -118 -131 -118c-80 0 -138 46 -198 46c-35 0 -53 -23 -59 -53l-83 17c17 76 57 117 136 117c78 0 138 -46 194 -46c37 0 52 22 57 54z" />
    <glyph glyph-name="approxequal" unicode="&#x2248;" horiz-adv-x="592" 
d="M203 374c-35 0 -54 -22 -59 -53l-84 17c18 76 57 117 137 117c77 0 138 -46 194 -46c37 0 51 23 57 54l84 -17c-16 -80 -60 -117 -131 -117c-81 0 -138 45 -198 45zM391 221c37 0 51 22 57 54l84 -17c-16 -80 -60 -118 -131 -118c-81 0 -138 46 -198 46
c-35 0 -54 -23 -59 -54l-84 17c18 77 57 118 137 118c77 0 138 -46 194 -46z" />
    <glyph glyph-name="asciicircum" unicode="^" horiz-adv-x="528" 
d="M478 401h-97l-117 216l-118 -216h-96l169 299h90z" />
    <glyph glyph-name="dagger" unicode="&#x2020;" horiz-adv-x="517" 
d="M447 531v-89h-143v-442h-91v442h-143v89h143v169h91v-169h143z" />
    <glyph glyph-name="daggerdbl" unicode="&#x2021;" horiz-adv-x="518" 
d="M448 442h-143v-184h143v-89h-143v-169h-92v169h-143v89h143v184h-143v89h143v169h92v-169h143v-89z" />
    <glyph glyph-name="paragraph" unicode="&#xb6;" horiz-adv-x="640" 
d="M580 700v-95h-75v-694h-89v694h-109v-694h-89v457c-99 3 -178 60 -178 166c0 108 84 166 186 166h354z" />
    <glyph glyph-name="slash" unicode="/" horiz-adv-x="478" 
d="M339 796h89l-289 -893h-89z" />
    <glyph glyph-name="braceleft" unicode="{" horiz-adv-x="393" 
d="M227 467c0 -62 -25 -103 -78 -116v-3c53 -12 78 -54 78 -116v-111c0 -75 2 -132 84 -132h22v-86h-33c-114 0 -162 51 -162 172v157c0 62 -22 77 -68 77v81c46 0 68 16 68 77v157c0 122 48 172 162 172h33v-86h-22c-82 0 -84 -56 -84 -131v-112z" />
    <glyph glyph-name="bracketleft" unicode="[" horiz-adv-x="331" 
d="M271 710h-112v-721h112v-86h-201v893h201v-86z" />
    <glyph glyph-name="guilsinglleft" unicode="&#x2039;" horiz-adv-x="318" 
d="M268 428l-120 -177l120 -177h-98l-120 177l120 177h98z" />
    <glyph glyph-name="guilsinglright" unicode="&#x203a;" horiz-adv-x="318" 
d="M147 428l121 -177l-121 -177h-97l120 177l-120 177h97z" />
    <glyph glyph-name="parenleft" unicode="(" horiz-adv-x="329" 
d="M269 732c-46 -73 -110 -202 -110 -382s64 -309 110 -382l-62 -46c-59 88 -137 224 -137 428s78 339 137 428z" />
    <glyph glyph-name="bar" unicode="|" horiz-adv-x="229" 
d="M70 757h89v-906h-89v906z" />
    <glyph glyph-name="brokenbar" unicode="&#xa6;" horiz-adv-x="229" 
d="M70 -149v355h89v-355h-89zM70 757h89v-355h-89v355z" />
    <glyph glyph-name="parenright" unicode=")" horiz-adv-x="329" 
d="M122 778c59 -89 137 -224 137 -428s-78 -340 -137 -428l-62 46c46 73 110 202 110 382s-64 309 -110 382z" />
    <glyph glyph-name="bracketright" unicode="]" horiz-adv-x="330" 
d="M60 796h200v-893h-200v86h111v721h-111v86z" />
    <glyph glyph-name="braceright" unicode="}" horiz-adv-x="393" 
d="M255 467c0 -61 22 -77 68 -77v-81c-46 0 -68 -15 -68 -77v-157c0 -121 -48 -172 -162 -172h-33v86h22c82 0 84 57 84 132v111c0 62 25 104 78 116v3c-53 13 -78 54 -78 116v112c0 75 -2 131 -84 131h-22v86h33c114 0 162 -50 162 -172v-157z" />
    <glyph glyph-name="backslash" unicode="\" horiz-adv-x="478" 
d="M139 796l289 -893h-89l-289 893h89z" />
    <glyph glyph-name="dollar" unicode="$" horiz-adv-x="558" 
d="M528 194c0 -89 -56 -188 -202 -204v-101h-80v100c-96 10 -186 58 -216 156l98 31c11 -46 62 -95 156 -95c75 0 143 33 143 105c0 95 -86 99 -197 126c-141 34 -172 108 -172 199c0 105 79 182 188 198v101h80v-100c83 -13 149 -65 174 -149l-98 -24
c-14 42 -49 82 -123 82c-68 0 -122 -41 -122 -108c0 -89 85 -103 174 -123c136 -32 197 -81 197 -194z" />
    <glyph glyph-name="cent" unicode="&#xa2;" horiz-adv-x="590" 
d="M316 170c64 0 117 32 146 82l78 -43c-42 -68 -113 -117 -201 -124v-85h-80v90c-123 25 -209 132 -209 260c0 127 86 235 209 260v90h80v-85c88 -8 159 -56 201 -125l-78 -42c-29 50 -82 81 -146 81c-100 0 -173 -76 -173 -179c0 -104 73 -180 173 -180z" />
    <glyph glyph-name="Euro" unicode="&#x20ac;" horiz-adv-x="763" 
d="M455 81c86 0 151 37 195 91l83 -55c-64 -80 -161 -130 -278 -130c-174 0 -306 111 -344 267h-81v63h71c-1 11 -2 22 -2 33s1 22 2 33h-71v62h81c38 157 170 267 344 267c117 0 214 -49 278 -130l-83 -54c-44 54 -109 91 -195 91c-124 0 -206 -77 -238 -174h259v-62h-273
c-1 -11 -2 -22 -2 -33s1 -22 2 -33h273v-63h-259c32 -96 114 -173 238 -173z" />
    <glyph glyph-name="yen" unicode="&#xa5;" horiz-adv-x="662" 
d="M642 700l-225 -379h133v-62h-169v-66h169v-63h-169v-130h-100v130h-169v63h169v66h-169v62h134l-226 379h113l198 -348l199 348h112z" />
    <glyph glyph-name="ruble" unicode="&#x20bd;" horiz-adv-x="679" 
d="M387 243h-124v-75h215v-62h-215v-106h-100v106h-113v62h113v75h-113v91h113v366h224c157 0 252 -101 252 -229s-95 -228 -252 -228zM263 609v-275h124c94 0 150 55 150 137s-56 138 -150 138h-124z" />
    <glyph glyph-name="bitcoin" unicode="&#x20bf;" horiz-adv-x="604" 
d="M564 203c0 -92 -48 -165 -147 -192v-122h-80v111h-13h-59v-111h-80v111h-115v700h115v110h80v-110h32c14 0 27 -1 40 -2v112h80v-129c78 -29 118 -88 118 -167c0 -67 -30 -117 -84 -147v-2c70 -26 113 -78 113 -162zM297 609h-127v-211h119c74 0 146 22 146 108
c0 81 -66 103 -138 103zM324 91c84 0 137 38 137 112c0 86 -71 111 -146 111h-145v-223h154z" />
    <glyph glyph-name="sterling" unicode="&#xa3;" horiz-adv-x="581" 
d="M156 90h375v-90h-481v90c60 38 102 95 102 180c0 12 -1 24 -3 35h-99v62h84c-14 45 -32 87 -32 144c0 114 79 201 209 201c103 0 175 -49 195 -150l-96 -24c-7 39 -32 85 -96 85c-72 0 -103 -51 -103 -111s23 -93 37 -145h195v-62h-185v-18c0 -88 -53 -157 -102 -195v-2z
" />
    <glyph glyph-name="currency" unicode="&#xa4;" horiz-adv-x="513" 
d="M428 350c0 -36 -12 -70 -31 -97l66 -66l-44 -44l-66 66c-27 -19 -61 -30 -97 -30s-69 11 -97 30l-65 -66l-44 44l65 66c-19 27 -30 61 -30 97s11 69 30 97l-65 65l44 44l65 -65c28 19 61 30 97 30s70 -11 97 -30l66 65l44 -44l-66 -65c19 -28 31 -61 31 -97zM256 259
c51 0 91 41 91 91s-40 91 -91 91c-50 0 -91 -41 -91 -91s41 -91 91 -91z" />
    <glyph glyph-name="asterisk" unicode="*" horiz-adv-x="455" 
d="M410 539l-141 -32l95 -108l-63 -46l-74 124l-73 -124l-64 46l96 108l-141 32l24 74l133 -57l-14 144h79l-14 -144l133 57z" />
    <glyph glyph-name="degree" unicode="&#xb0;" horiz-adv-x="407" 
d="M203 700c85 0 154 -69 154 -153c0 -85 -69 -154 -154 -154c-84 0 -153 69 -153 154c0 84 69 153 153 153zM203 464c46 0 82 37 82 83c0 45 -36 82 -82 82c-45 0 -82 -37 -82 -82c0 -46 37 -83 82 -83z" />
    <glyph glyph-name="numbersign" unicode="#" horiz-adv-x="655" 
d="M595 414h-112l-21 -127h113l-11 -72h-113l-28 -171h-74l28 171h-143l-28 -171h-73l28 171h-111l11 72h111l21 127h-112l11 72h113l28 169h73l-28 -169h144l28 169h73l-28 -169h110zM389 287l21 127h-143l-21 -127h143z" />
    <glyph glyph-name="copyright" unicode="&#xa9;" horiz-adv-x="818" 
d="M416 489c-84 0 -131 -69 -131 -139s47 -139 131 -139c44 0 78 19 100 47l43 -28c-32 -42 -83 -67 -143 -67c-107 0 -184 81 -184 187s77 187 184 187c60 0 111 -26 143 -67l-43 -28c-22 28 -56 47 -100 47zM409 704c196 0 354 -159 354 -354s-158 -354 -354 -354
c-195 0 -354 159 -354 354s159 354 354 354zM409 49c166 0 301 135 301 301s-135 301 -301 301c-165 0 -300 -135 -300 -301s135 -301 300 -301z" />
    <glyph glyph-name="registered" unicode="&#xae;" horiz-adv-x="818" 
d="M409 704c195 0 354 -159 354 -354s-159 -354 -354 -354s-354 159 -354 354s159 354 354 354zM409 49c166 0 301 135 301 301s-135 300 -301 300s-301 -134 -301 -300s135 -301 301 -301zM552 426c0 -49 -28 -89 -79 -106l100 -152h-63l-94 144h-77v-144h-53v372h133
c84 0 133 -50 133 -114zM339 360h80c51 0 79 26 79 66s-28 66 -79 66h-80v-132z" />
    <glyph glyph-name="percent" unicode="%" horiz-adv-x="874" 
d="M628 700h80l-462 -700h-80zM378 528c0 -91 -74 -164 -164 -164s-164 73 -164 164c0 90 74 164 164 164s164 -74 164 -164zM121 528c0 -51 42 -93 93 -93s93 42 93 93s-42 92 -93 92s-93 -41 -93 -92zM660 336c91 0 164 -74 164 -164s-73 -164 -164 -164
c-90 0 -163 74 -163 164s73 164 163 164zM660 79c52 0 93 42 93 93s-41 93 -93 93c-51 0 -92 -42 -92 -93s41 -93 92 -93z" />
    <glyph glyph-name="perthousand" unicode="&#x2030;" horiz-adv-x="1284" 
d="M629 700h80l-462 -700h-80zM378 528c0 -91 -73 -164 -164 -164c-90 0 -164 73 -164 164c0 90 74 164 164 164c91 0 164 -74 164 -164zM122 528c0 -51 41 -93 92 -93s93 42 93 93s-42 92 -93 92s-92 -41 -92 -92zM661 336c90 0 164 -74 164 -164s-74 -164 -164 -164
c-91 0 -164 74 -164 164s73 164 164 164zM661 79c51 0 93 42 93 93s-42 93 -93 93s-93 -42 -93 -93s42 -93 93 -93zM1070 336c90 0 164 -74 164 -164s-74 -164 -164 -164s-164 74 -164 164s74 164 164 164zM1070 79c51 0 93 42 93 93s-42 93 -93 93s-93 -42 -93 -93
s42 -93 93 -93z" />
    <glyph glyph-name="afii61352" unicode="&#x2116;" horiz-adv-x="1107" 
d="M520 184v516h100v-700h-87l-363 516v-516h-100v700h87zM898 376c-88 0 -159 72 -159 159c0 88 71 159 159 159c87 0 159 -71 159 -159c0 -87 -72 -159 -159 -159zM898 614c-44 0 -79 -35 -79 -79c0 -43 35 -79 79 -79c43 0 79 36 79 79c0 44 -36 79 -79 79zM745 209v89
h305v-89h-305z" />
    <glyph glyph-name="section" unicode="&#xa7;" horiz-adv-x="568" 
d="M426 153c24 -23 38 -52 38 -91c0 -115 -91 -179 -195 -179s-173 49 -190 128l90 24c3 -24 33 -68 97 -68c68 0 98 40 98 78c0 126 -304 76 -304 265c0 62 40 105 82 132c-23 23 -37 52 -37 91c0 114 90 179 194 179c105 0 174 -49 191 -128l-91 -24c-3 24 -33 68 -97 68
c-67 0 -97 -40 -97 -78c0 -126 303 -76 303 -265c0 -62 -40 -105 -82 -132zM305 217c24 -8 47 -17 68 -28c24 15 49 46 49 79c0 60 -80 84 -159 110c-24 8 -47 17 -67 28c-25 -16 -50 -46 -50 -80c0 -60 81 -83 159 -109z" />
    <glyph glyph-name="ampersand" unicode="&#x26;" horiz-adv-x="737" 
d="M560 155c75 -67 146 -129 177 -155h-135c-27 22 -64 55 -96 83c-52 -57 -118 -96 -227 -96c-135 0 -244 82 -244 203c0 113 95 174 156 201c-27 42 -52 96 -52 150c0 102 88 171 183 171c110 0 178 -75 178 -160c0 -105 -90 -146 -175 -181c14 -13 37 -35 52 -49l13 -13
c33 -31 67 -63 101 -93c18 35 28 72 32 101l88 -12c-7 -52 -24 -104 -51 -150zM322 632c-44 0 -94 -24 -94 -91c0 -39 21 -83 47 -118c89 34 136 71 136 129c0 39 -31 80 -89 80zM277 67c76 0 130 31 162 76c-37 33 -74 67 -110 101l-13 13c-26 24 -55 54 -77 78
c-86 -30 -115 -86 -115 -145c0 -72 68 -123 153 -123z" />
    <glyph glyph-name="quotedblleft" unicode="&#x201c;" horiz-adv-x="462" 
d="M50 506l123 197l47 -27l-96 -213zM364 703l48 -27l-97 -213l-74 43z" />
    <glyph glyph-name="quotedblright" unicode="&#x201d;" horiz-adv-x="462" 
d="M339 703l73 -42l-123 -198l-47 27zM50 490l97 213l74 -42l-123 -198z" />
    <glyph glyph-name="quotedblbase" unicode="&#x201e;" horiz-adv-x="432" 
d="M308 127l74 -42l-123 -198l-47 27zM20 -86l97 213l73 -42l-122 -198z" />
    <glyph glyph-name="quotesingle" unicode="'" horiz-adv-x="229" 
d="M70 700h89v-232h-89v232z" />
    <glyph glyph-name="at" unicode="@" horiz-adv-x="936" 
d="M473 729c256 0 403 -174 403 -359c0 -148 -84 -235 -171 -235c-55 0 -90 30 -107 83c-31 -46 -82 -78 -153 -78c-113 0 -186 90 -186 196c0 103 79 196 190 196c66 0 112 -31 142 -72v62h65v-216c0 -57 4 -110 55 -110c61 0 103 74 103 174c0 170 -135 306 -341 306
c-203 0 -351 -139 -351 -342c0 -208 159 -338 337 -338c109 0 174 44 198 66l39 -46c-47 -38 -123 -74 -237 -74c-234 0 -399 169 -399 392s164 395 413 395zM464 213c82 0 123 67 123 123c0 69 -55 122 -123 122c-65 0 -122 -49 -122 -122s52 -123 122 -123z" />
    <glyph glyph-name="bullet" unicode="&#x2022;" horiz-adv-x="317" 
d="M159 414c54 0 98 -44 98 -99c0 -54 -44 -98 -98 -98c-55 0 -99 44 -99 98c0 55 44 99 99 99z" />
    <glyph glyph-name="quotedbl" unicode="&#x22;" horiz-adv-x="403" 
d="M70 468v232h89v-232h-89zM244 700h89v-232h-89v232z" />
    <glyph glyph-name="AE" unicode="&#xc6;" horiz-adv-x="935" 
d="M590 91h295v-91h-395v168h-283l-79 -168h-108l341 700h515v-91h-286v-201h263v-91h-263v-226zM249 260h241v349h-78z" />
    <glyph glyph-name="OE" unicode="&#x152;" horiz-adv-x="936" 
d="M591 91h295v-91h-467c-237 0 -374 152 -374 350c0 197 137 350 374 350h458v-91h-286v-201h263v-91h-263v-226zM490 91v518h-71c-166 0 -273 -102 -273 -259s107 -259 273 -259h71z" />
    <glyph glyph-name="Dcroat" unicode="&#x110;" horiz-adv-x="716" 
d="M306 700c237 0 365 -153 365 -350c0 -198 -128 -350 -365 -350h-198v314h-98v71h98v315h198zM306 91c166 0 264 102 264 259s-98 259 -264 259h-98v-224h177v-71h-177v-223h98z" />
    <glyph glyph-name="Oslash" unicode="&#xd8;" horiz-adv-x="801" 
d="M691 566c42 -60 65 -134 65 -216c0 -205 -148 -363 -355 -363c-97 0 -181 35 -243 92l-61 -55l-48 53l62 57c-42 59 -66 134 -66 216c0 205 149 362 356 362c97 0 181 -34 243 -92l61 56l49 -54zM147 350c0 -52 13 -104 39 -148l385 352c-42 39 -99 65 -170 65
c-163 0 -254 -133 -254 -269zM401 81c163 0 254 133 254 269c0 52 -14 103 -39 147l-385 -351c42 -40 99 -65 170 -65z" />
    <glyph glyph-name="Thorn" unicode="&#xde;" horiz-adv-x="586" 
d="M294 578c157 0 252 -100 252 -228s-95 -229 -252 -229h-124v-121h-100v700h100v-122h124zM294 213c94 0 150 55 150 137s-56 137 -150 137h-124v-274h124z" />
    <glyph glyph-name="Hbar" unicode="&#x126;" horiz-adv-x="741" 
d="M731 596v-72h-94v-524h-100v307h-332v-307h-101v524h-94v72h94v104h101v-104h332v104h100v-104h94zM537 399v125h-332v-125h332z" />
    <glyph glyph-name="Tbar" unicode="&#x166;" horiz-adv-x="534" 
d="M494 609h-177v-188h129v-71h-129v-350h-100v350h-129v71h129v188h-177v91h454v-91z" />
    <glyph glyph-name="Eng" unicode="&#x14a;" horiz-adv-x="690" 
d="M520 700h100v-687c0 -132 -47 -215 -170 -215c-18 0 -29 1 -44 3v93c96 -8 113 33 114 124l-350 498v-516h-100v700h87l363 -516v516z" />
    <glyph glyph-name="Lslash" unicode="&#x141;" horiz-adv-x="541" 
d="M214 91h287v-91h-387v236l-70 -39l-34 60l104 58v385h100v-328l133 75l34 -60l-167 -94v-202z" />
    <glyph glyph-name="ae" unicode="&#xe6;" horiz-adv-x="901" 
d="M626 519c138 0 260 -116 236 -305h-394c13 -80 67 -140 166 -140c55 0 104 21 133 57l75 -48c-45 -61 -119 -96 -208 -96c-96 0 -166 40 -207 101c-31 -51 -100 -101 -203 -101c-104 0 -189 58 -189 149c0 159 193 156 264 156h82v5c0 78 -16 139 -121 139
c-53 0 -109 -27 -132 -45l-64 49c56 51 134 79 214 79c81 0 131 -39 158 -92c43 56 108 92 190 92zM381 145v76h-35c-94 0 -217 8 -217 -81c0 -39 25 -79 106 -79c87 0 138 49 146 84zM468 292h302c-11 86 -58 141 -144 141c-87 0 -145 -57 -158 -141z" />
    <glyph glyph-name="oe" unicode="&#x153;" horiz-adv-x="995" 
d="M720 519c138 0 260 -116 236 -305h-394c13 -80 67 -140 166 -140c55 0 105 21 133 57l75 -48c-45 -61 -119 -96 -208 -96c-102 0 -174 45 -214 112c-45 -67 -120 -112 -213 -112c-153 0 -266 120 -266 266s113 266 266 266c94 0 170 -45 214 -113c42 68 113 113 205 113z
M301 74c100 0 173 76 173 179c0 104 -73 180 -173 180c-99 0 -172 -76 -172 -180c0 -103 73 -179 172 -179zM562 292h302c-11 86 -58 141 -144 141c-87 0 -145 -57 -158 -141z" />
    <glyph glyph-name="dcroat" unicode="&#x111;" horiz-adv-x="628" 
d="M633 605v-54h-70v-551h-91v67c-38 -45 -96 -80 -184 -80c-158 0 -253 124 -253 257s95 257 253 257c88 0 146 -34 184 -79v129h-160v54h160v95h91v-95h70zM297 65c111 0 175 79 175 179s-64 180 -175 180c-105 0 -168 -77 -168 -180c0 -102 63 -179 168 -179z" />
    <glyph glyph-name="eth" unicode="&#xf0;" horiz-adv-x="591" 
d="M385 613c93 -90 171 -216 171 -371c0 -149 -101 -255 -260 -255c-153 0 -261 101 -261 246s117 238 252 238c58 0 110 -21 132 -40l1 1c-22 47 -64 98 -113 143l-132 -64l-24 48l111 54c-38 29 -77 53 -114 68l76 52c37 -20 78 -48 118 -81l115 56l24 -48zM296 74
c111 0 166 77 166 159c0 94 -68 160 -166 160c-112 0 -167 -78 -167 -160s55 -159 167 -159z" />
    <glyph glyph-name="oslash" unicode="&#xf8;" horiz-adv-x="602" 
d="M516 413c32 -45 51 -100 51 -160c0 -146 -113 -266 -266 -266c-70 0 -132 26 -178 67l-51 -46l-36 40l51 46c-33 44 -52 99 -52 159c0 146 113 266 266 266c71 0 132 -25 179 -67l50 46l36 -40zM129 253c0 -37 9 -70 25 -98l260 237c-30 26 -69 41 -113 41
c-100 0 -172 -76 -172 -180zM301 74c100 0 173 76 173 179c0 37 -10 70 -26 98l-260 -237c30 -25 69 -40 113 -40z" />
    <glyph glyph-name="minus" unicode="&#x2212;" horiz-adv-x="461" 
d="M70 342h321v-89h-321v89z" />
    <glyph glyph-name="fraction" unicode="&#x2044;" horiz-adv-x="478" 
d="M339 796h89l-289 -893h-89z" />
    <glyph glyph-name="quoteright" unicode="&#x2019;" horiz-adv-x="270" 
d="M147 703l73 -42l-123 -198l-47 27z" />
    <glyph glyph-name="quoteleft" unicode="&#x2018;" horiz-adv-x="271" 
d="M173 703l48 -27l-97 -213l-74 43z" />
    <glyph glyph-name="quotesinglbase" unicode="&#x201a;" horiz-adv-x="240" 
d="M116 127l74 -42l-123 -198l-47 27z" />
    <glyph glyph-name="longs" unicode="&#x17f;" horiz-adv-x="354" 
d="M300 636c-82 0 -92 -53 -93 -129v-507h-91v420h-81v87h81c0 106 35 205 174 205c14 0 22 0 34 -2v-75c-6 0 -17 1 -24 1z" />
    <glyph glyph-name="thorn" unicode="&#xfe;" horiz-adv-x="628" 
d="M341 519c158 0 252 -133 252 -266s-94 -266 -252 -266c-88 0 -147 36 -184 84v-264h-92v893h92v-264c37 47 96 83 184 83zM332 74c105 0 168 77 168 179s-63 180 -168 180c-112 0 -175 -80 -175 -180s63 -179 175 -179z" />
    <glyph glyph-name="hbar" unicode="&#x127;" horiz-adv-x="573" 
d="M313 501c114 0 195 -94 195 -202v-299h-91v273c0 71 -30 142 -125 142c-96 0 -135 -83 -135 -142v-273h-91v551h-70v54h70v95h91v-95h160v-54h-160v-133c30 45 80 83 156 83z" />
    <glyph glyph-name="tbar" unicode="&#x167;" horiz-adv-x="367" 
d="M317 420h-118v-83h118v-53h-118v-86c0 -72 2 -120 80 -120c15 0 27 1 38 2v-80c-13 -3 -30 -5 -49 -5c-111 0 -160 59 -160 170v119h-78v53h78v83h-78v87h78v106h91v-106h118v-87z" />
    <glyph glyph-name="eng" unicode="&#x14b;" 
d="M312 519c115 0 195 -95 195 -202v-317c0 -96 -52 -176 -175 -176c-13 0 -24 1 -35 2v81c97 -3 119 43 119 111v273c0 71 -30 142 -125 142c-96 0 -135 -83 -135 -142v-291h-91v507h91v-71c30 45 80 83 156 83z" />
    <glyph glyph-name="lslash" unicode="&#x142;" horiz-adv-x="305" 
d="M300 408l-102 -61v-347h-91v291l-74 -45l-28 46l102 62v346h91v-291l74 45z" />
    <glyph glyph-name="napostrophe" unicode="&#x149;" horiz-adv-x="595" 
d="M335 519c115 0 195 -95 195 -202v-317h-91v291c0 71 -30 142 -125 142c-96 0 -135 -83 -135 -142v-291h-91v507h91v-71c30 45 80 83 156 83zM47 700h97l-77 -140h-72z" />
    <glyph glyph-name="germandbls" unicode="&#xdf;" horiz-adv-x="579" 
d="M407 378c85 -26 137 -86 137 -175c0 -128 -100 -232 -272 -203v82c115 -14 178 40 178 122c0 86 -69 116 -148 116h-30v82c85 0 122 48 122 116c0 58 -36 108 -115 108c-75 0 -123 -55 -123 -144v-482h-91v497c0 128 97 215 214 215c132 0 210 -83 210 -187
c0 -65 -31 -116 -82 -147z" />
    <glyph glyph-name="ogonek" unicode="&#x2db;" horiz-adv-x="288" 
d="M137 -117c0 -36 24 -60 81 -51v-64c-11 -3 -23 -5 -39 -5c-67 0 -109 42 -109 97c0 64 54 116 92 140h56c-46 -29 -81 -76 -81 -117z" />
    <glyph glyph-name="cedilla" unicode="&#xb8;" horiz-adv-x="349" 
d="M164 -49c61 6 115 -21 115 -93c0 -62 -47 -109 -122 -109c-35 0 -66 10 -87 22l31 56c10 -6 28 -13 50 -13c40 0 64 20 64 51c0 29 -18 45 -50 45c-17 0 -35 -6 -44 -11l-23 31l35 70h55z" />
    <glyph glyph-name="commaaccent" unicode="&#xf6c3;" horiz-adv-x="288" 
d="M122 -91h96l-76 -140h-72z" />
    <glyph glyph-name="tilde" unicode="&#x2dc;" horiz-adv-x="443" 
d="M313 685l60 -11c-8 -60 -36 -91 -85 -91s-84 33 -122 33c-25 0 -34 -23 -36 -41l-60 11c10 62 39 91 86 91c45 0 82 -33 121 -33c29 0 34 24 36 41z" />
    <glyph glyph-name="grave" unicode="`" horiz-adv-x="304" 
d="M168 727l66 -140h-67l-97 140h98z" />
    <glyph glyph-name="Aogonek" unicode="&#x104;" horiz-adv-x="675" 
d="M646 0c-46 -29 -81 -76 -81 -117c0 -36 25 -60 81 -51v-64c-11 -3 -23 -5 -38 -5c-68 0 -110 42 -110 97c0 64 54 116 92 140h-43l-60 168h-299l-59 -168h-109l261 700h113l261 -700h-9zM220 260h235l-117 333z" />
    <glyph glyph-name="acute" unicode="&#xb4;" horiz-adv-x="304" 
d="M136 727h98l-97 -140h-67z" />
    <glyph glyph-name="circumflex" unicode="&#x2c6;" horiz-adv-x="447" 
d="M377 587h-86l-67 92l-68 -92h-86l110 140h87z" />
    <glyph glyph-name="Ccedilla" unicode="&#xc7;" horiz-adv-x="704" 
d="M401 81c85 0 151 37 194 91l84 -55c-64 -80 -161 -129 -277 -130l-19 -37c61 6 116 -21 116 -93c0 -62 -48 -109 -123 -109c-35 0 -66 10 -87 22l31 56c10 -6 28 -13 50 -13c40 0 64 20 64 51c0 29 -18 45 -50 45c-17 0 -35 -6 -44 -11l-23 31l31 62
c-179 24 -303 172 -303 359c0 205 148 362 356 362c116 0 214 -49 278 -130l-84 -54c-43 54 -109 91 -194 91c-164 0 -254 -133 -254 -269s90 -269 254 -269z" />
    <glyph glyph-name="breve" unicode="&#x2d8;" horiz-adv-x="427" 
d="M288 714h69c-3 -78 -58 -132 -143 -132s-140 54 -144 132h69c0 -28 21 -69 75 -69s74 41 74 69z" />
    <glyph glyph-name="dotaccent" unicode="&#x2d9;" horiz-adv-x="255" 
d="M127 705c32 0 58 -25 58 -57s-26 -58 -58 -58s-57 26 -57 58s25 57 57 57z" />
    <glyph glyph-name="Eogonek" unicode="&#x118;" horiz-adv-x="516" 
d="M466 0c-47 -29 -82 -76 -82 -117c0 -36 25 -60 82 -51v-64c-11 -3 -23 -5 -39 -5c-68 0 -109 42 -109 97c0 64 54 116 92 140h-340v700h387v-91h-286v-201h263v-91h-263v-226h295v-91z" />
    <glyph glyph-name="macron" unicode="&#xaf;" horiz-adv-x="413" 
d="M70 679h273v-71h-273v71z" />
    <glyph glyph-name="Iogonek" unicode="&#x12e;" horiz-adv-x="240" 
d="M170 0c-47 -29 -82 -76 -82 -117c0 -36 25 -60 82 -51v-64c-11 -3 -24 -5 -39 -5c-68 0 -109 42 -109 97c0 64 54 116 92 140h-45v700h101v-700z" />
    <glyph glyph-name="caron" unicode="&#x2c7;" horiz-adv-x="447" 
d="M291 727h86l-110 -140h-87l-110 140h86l68 -93z" />
    <glyph glyph-name="Scedilla" unicode="&#x15e;" horiz-adv-x="558" 
d="M528 194c0 -96 -65 -203 -237 -207l-18 -37c60 6 115 -21 115 -93c0 -62 -48 -109 -123 -109c-35 0 -66 10 -87 22l31 56c11 -6 29 -13 50 -13c41 0 65 20 65 51c0 29 -19 45 -50 45c-17 0 -35 -6 -44 -11l-24 31l31 61c-93 12 -178 60 -207 155l98 31
c11 -46 62 -95 156 -95c75 0 143 33 143 105c0 95 -86 99 -197 126c-141 34 -172 108 -172 199c0 118 100 201 230 201c101 0 184 -54 212 -151l-98 -24c-14 42 -49 82 -123 82c-68 0 -122 -41 -122 -108c0 -89 85 -103 174 -123c136 -32 197 -81 197 -194z" />
    <glyph glyph-name="ring" unicode="&#x2da;" horiz-adv-x="358" 
d="M179 766c61 0 109 -49 109 -109s-48 -109 -109 -109c-60 0 -109 49 -109 109s49 109 109 109zM179 601c31 0 56 25 56 56c0 30 -25 55 -56 55c-30 0 -55 -25 -55 -55c0 -31 25 -56 55 -56z" />
    <glyph glyph-name="dieresis" unicode="&#xa8;" horiz-adv-x="453" 
d="M127 705c32 0 58 -25 58 -57s-26 -58 -58 -58s-57 26 -57 58s25 57 57 57zM325 705c32 0 58 -25 58 -57s-26 -58 -58 -58c-31 0 -57 26 -57 58s26 57 57 57z" />
    <glyph glyph-name="Uogonek" unicode="&#x172;" horiz-adv-x="672" 
d="M501 700h100v-434c0 -137 -54 -225 -153 -261c-46 -29 -81 -81 -81 -122c0 -36 25 -60 82 -51v-64c-11 -3 -23 -5 -39 -5c-68 0 -109 42 -109 97c0 56 41 103 77 130c-14 -2 -28 -3 -43 -3c-170 0 -265 97 -265 279v434h100v-416c0 -150 65 -202 165 -202
c101 0 166 52 166 202v416z" />
    <glyph glyph-name="hungarumlaut" unicode="&#x2dd;" horiz-adv-x="473" 
d="M70 587l66 140h98l-97 -140h-67zM304 727h99l-97 -140h-67z" />
    <glyph glyph-name="aogonek" unicode="&#x105;" horiz-adv-x="537" 
d="M472 0c-46 -29 -81 -76 -81 -117c0 -36 25 -60 81 -51v-64c-11 -3 -23 -5 -38 -5c-68 0 -110 42 -110 97c0 64 54 116 92 140h-35v70c-23 -39 -86 -83 -166 -83c-96 0 -180 58 -180 149c0 159 193 163 264 163h82c0 77 -16 137 -121 137c-53 0 -109 -27 -131 -45l-64 49
c56 51 133 79 213 79c146 0 194 -92 194 -213v-306zM381 145v83h-35c-94 0 -217 1 -217 -88c0 -39 25 -79 106 -79c87 0 140 61 146 84z" />
    <glyph glyph-name="ccedilla" unicode="&#xe7;" horiz-adv-x="546" 
d="M301 74c64 0 117 31 147 81l78 -42c-46 -75 -126 -126 -225 -126h-4l-19 -37c61 6 116 -21 116 -93c0 -62 -48 -109 -123 -109c-35 0 -66 10 -87 22l31 56c10 -6 28 -13 50 -13c41 0 64 20 64 51c0 29 -18 45 -50 45c-17 0 -35 -6 -44 -11l-23 31l32 64
c-123 26 -209 133 -209 260c0 146 113 266 266 266c99 0 179 -51 225 -125l-78 -43c-30 50 -83 82 -147 82c-100 0 -173 -76 -173 -180c0 -103 73 -179 173 -179z" />
    <glyph glyph-name="eogonek" unicode="&#x119;" horiz-adv-x="573" 
d="M291 519c139 0 268 -116 244 -305h-403c14 -83 76 -140 175 -140c55 0 105 21 133 57l75 -48c-35 -48 -88 -79 -151 -91c-43 -29 -74 -70 -74 -109c0 -36 25 -60 82 -51v-64c-11 -3 -24 -5 -39 -5c-68 0 -109 42 -109 97s39 101 74 128c-162 4 -263 122 -263 265
c0 146 108 266 256 266zM132 292h311c-12 86 -66 141 -152 141s-145 -57 -159 -141z" />
    <glyph glyph-name="iogonek" unicode="&#x12f;" horiz-adv-x="222" 
d="M66 0v507h91v-507c-46 -29 -82 -76 -82 -117c0 -36 25 -60 82 -51v-64c-11 -3 -23 -5 -39 -5c-67 0 -109 42 -109 97c0 64 54 116 92 140h-35zM111 597c-28 0 -52 23 -52 52c0 28 24 52 52 52c29 0 52 -24 52 -52c0 -29 -23 -52 -52 -52z" />
    <glyph glyph-name="scedilla" unicode="&#x15f;" horiz-adv-x="453" 
d="M423 152c0 -86 -60 -159 -184 -164l-19 -38c60 6 115 -21 115 -93c0 -62 -47 -109 -122 -109c-35 0 -66 10 -87 22l31 56c10 -6 28 -13 49 -13c41 0 65 20 65 51c0 29 -18 45 -50 45c-17 0 -35 -6 -44 -11l-23 31l30 61c-82 9 -147 48 -164 113l89 30
c8 -26 35 -62 117 -62c66 0 103 27 103 72c0 59 -85 59 -155 75c-95 21 -136 67 -136 142c0 93 76 159 187 159c82 0 155 -42 173 -117l-85 -23c-9 28 -39 58 -96 58c-50 0 -87 -28 -87 -70c0 -57 70 -61 128 -73c124 -26 165 -66 165 -142z" />
    <glyph glyph-name="uogonek" unicode="&#x173;" 
d="M508 0c-47 -29 -82 -76 -82 -117c0 -36 25 -60 82 -51v-64c-11 -3 -24 -5 -39 -5c-68 0 -109 42 -109 97c0 64 54 116 92 140h-35v70c-30 -45 -80 -83 -157 -83c-114 0 -195 95 -195 202v318h92v-291c0 -72 30 -142 125 -142c96 0 135 82 135 142v291h91v-507z" />
    <glyph glyph-name="dcaron" unicode="&#x10f;" horiz-adv-x="689" 
d="M688 700h96l-76 -140h-72zM472 700h91v-700h-91v71c-38 -48 -96 -84 -184 -84c-158 0 -253 133 -253 266s95 266 253 266c88 0 146 -36 184 -83v264zM297 74c111 0 175 79 175 179s-64 180 -175 180c-105 0 -168 -78 -168 -180s63 -179 168 -179z" />
    <glyph glyph-name="tcaron" unicode="&#x165;" horiz-adv-x="367" 
d="M363 712h96l-76 -140h-72zM317 420h-117v-222c0 -72 1 -120 80 -120c15 0 26 1 37 2v-80c-13 -3 -29 -5 -49 -5c-110 0 -159 59 -159 170v255h-79v87h79v106h91v-106h117v-87z" />
    <glyph glyph-name="Ldot" unicode="&#x13f;" horiz-adv-x="498" 
d="M339 269c-34 0 -61 28 -61 62c0 33 27 61 61 61s61 -28 61 -61c0 -34 -27 -62 -61 -62zM170 91h288v-91h-388v700h100v-609z" />
    <glyph glyph-name="ldot" unicode="&#x140;" horiz-adv-x="384" 
d="M303 392c34 0 61 -28 61 -61c0 -34 -27 -62 -61 -62s-61 28 -61 62c0 33 27 61 61 61zM65 700h91v-700h-91v700z" />
    <glyph glyph-name="lcaron" unicode="&#x13e;" horiz-adv-x="282" 
d="M281 700h96l-76 -140h-72zM65 700h91v-700h-91v700z" />
    <glyph glyph-name="space" unicode=" " horiz-adv-x="270" 
 />
    <glyph glyph-name="Aacute" unicode="&#xc1;" horiz-adv-x="674" 
d="M546 0l-59 168h-300l-59 -168h-108l260 700h114l260 -700h-108zM219 260h235l-117 333zM381 927h98l-97 -140h-67z" />
    <glyph glyph-name="Abreve" unicode="&#x102;" horiz-adv-x="674" 
d="M546 0l-59 168h-300l-59 -168h-108l260 700h114l260 -700h-108zM219 260h235l-117 333zM412 914h69c-3 -78 -58 -132 -143 -132s-140 54 -144 132h69c0 -28 21 -69 75 -69s74 41 74 69z" />
    <glyph glyph-name="Acircumflex" unicode="&#xc2;" horiz-adv-x="674" 
d="M546 0l-59 168h-300l-59 -168h-108l260 700h114l260 -700h-108zM219 260h235l-117 333zM491 787h-86l-67 92l-68 -92h-86l110 140h87z" />
    <glyph glyph-name="Agrave" unicode="&#xc0;" horiz-adv-x="674" 
d="M546 0l-59 168h-300l-59 -168h-108l260 700h114l260 -700h-108zM219 260h235l-117 333zM303 927l66 -140h-67l-97 140h98z" />
    <glyph glyph-name="Adieresis" unicode="&#xc4;" horiz-adv-x="674" 
d="M546 0l-59 168h-300l-59 -168h-108l260 700h114l260 -700h-108zM219 260h235l-117 333zM238 905c32 0 58 -25 58 -57s-26 -58 -58 -58s-57 26 -57 58s25 57 57 57zM436 905c32 0 58 -25 58 -57s-26 -58 -58 -58c-31 0 -57 26 -57 58s26 57 57 57z" />
    <glyph glyph-name="Amacron" unicode="&#x100;" horiz-adv-x="674" 
d="M546 0l-59 168h-300l-59 -168h-108l260 700h114l260 -700h-108zM219 260h235l-117 333zM201 879h273v-71h-273v71z" />
    <glyph glyph-name="Aring" unicode="&#xc5;" horiz-adv-x="675" 
d="M546 0l-59 168h-300l-59 -168h-108l260 700h114l260 -700h-108zM219 260h235l-117 333zM337 966c61 0 109 -49 109 -109s-48 -109 -109 -109c-60 0 -109 49 -109 109s49 109 109 109zM337 801c31 0 56 25 56 56c0 30 -25 55 -56 55c-30 0 -55 -25 -55 -55
c0 -31 25 -56 55 -56z" />
    <glyph glyph-name="Atilde" unicode="&#xc3;" horiz-adv-x="674" 
d="M546 0l-59 168h-300l-59 -168h-108l260 700h114l260 -700h-108zM219 260h235l-117 333zM429 885l60 -11c-8 -60 -36 -91 -85 -91s-84 33 -122 33c-25 0 -34 -23 -36 -41l-60 11c10 62 39 91 86 91c45 0 82 -33 121 -33c29 0 34 24 36 41z" />
    <glyph glyph-name="Uhungarumlaut" unicode="&#x170;" horiz-adv-x="672" 
d="M501 700h101v-434c0 -182 -96 -279 -266 -279c-171 0 -266 97 -266 279v434h100v-416c0 -150 65 -202 166 -202c100 0 165 52 165 202v416zM209 787l66 140h98l-97 -140h-67zM443 927h99l-97 -140h-67z" />
    <glyph glyph-name="Scaron" unicode="&#x160;" horiz-adv-x="559" 
d="M332 388c136 -32 197 -81 197 -194c0 -98 -67 -207 -247 -207c-107 0 -218 48 -252 158l99 31c10 -46 62 -95 155 -95c76 0 143 33 143 105c0 95 -85 99 -196 126c-141 34 -173 108 -173 199c0 118 101 201 231 201c100 0 183 -54 212 -151l-98 -24
c-14 42 -50 82 -124 82c-67 0 -121 -41 -121 -108c0 -89 85 -103 174 -123zM347 927h86l-110 -140h-87l-110 140h86l68 -93z" />
    <glyph glyph-name="Edotaccent" unicode="&#x116;" horiz-adv-x="516" 
d="M171 91h295v-91h-396v700h386v-91h-285v-201h263v-91h-263v-226zM268 905c32 0 58 -25 58 -57s-26 -58 -58 -58s-57 26 -57 58s25 57 57 57z" />
    <glyph glyph-name="AEacute" unicode="&#x1fc;" horiz-adv-x="935" 
d="M590 91h295v-91h-395v168h-283l-79 -168h-108l341 700h515v-91h-286v-201h263v-91h-263v-226zM249 260h241v349h-78zM596 927h98l-97 -140h-67z" />
    <glyph glyph-name="Cacute" unicode="&#x106;" horiz-adv-x="704" 
d="M401 81c85 0 151 37 195 91l83 -55c-64 -80 -162 -130 -278 -130c-207 0 -356 158 -356 363s149 362 356 362c116 0 214 -49 278 -130l-83 -54c-44 54 -110 91 -195 91c-163 0 -254 -133 -254 -269s91 -269 254 -269zM406 927h98l-97 -140h-67z" />
    <glyph glyph-name="Ccaron" unicode="&#x10c;" horiz-adv-x="704" 
d="M401 81c85 0 151 37 195 91l83 -55c-64 -80 -162 -130 -278 -130c-207 0 -356 158 -356 363s149 362 356 362c116 0 214 -49 278 -130l-83 -54c-44 54 -110 91 -195 91c-163 0 -254 -133 -254 -269s91 -269 254 -269zM449 927h86l-110 -140h-87l-110 140h86l68 -93z" />
    <glyph glyph-name="Ccircumflex" unicode="&#x108;" horiz-adv-x="704" 
d="M401 81c85 0 151 37 195 91l83 -55c-64 -80 -162 -130 -278 -130c-207 0 -356 158 -356 363s149 362 356 362c116 0 214 -49 278 -130l-83 -54c-44 54 -110 91 -195 91c-163 0 -254 -133 -254 -269s91 -269 254 -269zM535 787h-86l-67 92l-68 -92h-86l110 140h87z" />
    <glyph glyph-name="Cdotaccent" unicode="&#x10a;" horiz-adv-x="704" 
d="M401 81c85 0 151 37 195 91l83 -55c-64 -80 -162 -130 -278 -130c-207 0 -356 158 -356 363s149 362 356 362c116 0 214 -49 278 -130l-83 -54c-44 54 -110 91 -195 91c-163 0 -254 -133 -254 -269s91 -269 254 -269zM381 905c32 0 58 -25 58 -57s-26 -58 -58 -58
s-57 26 -57 58s25 57 57 57z" />
    <glyph glyph-name="Dcaron" unicode="&#x10e;" horiz-adv-x="678" 
d="M268 700c237 0 365 -153 365 -350c0 -198 -128 -350 -365 -350h-198v700h198zM268 91c166 0 264 102 264 259s-98 259 -264 259h-98v-518h98zM389 927h86l-110 -140h-87l-110 140h86l68 -93z" />
    <glyph glyph-name="Eacute" unicode="&#xc9;" horiz-adv-x="516" 
d="M171 91h295v-91h-396v700h386v-91h-285v-201h263v-91h-263v-226zM292 927h98l-97 -140h-67z" />
    <glyph glyph-name="Ebreve" unicode="&#x114;" horiz-adv-x="516" 
d="M171 91h295v-91h-396v700h386v-91h-285v-201h263v-91h-263v-226zM343 914h69c-3 -78 -58 -132 -143 -132s-140 54 -144 132h69c0 -28 21 -69 75 -69s74 41 74 69z" />
    <glyph glyph-name="Ecaron" unicode="&#x11a;" horiz-adv-x="516" 
d="M171 91h295v-91h-396v700h386v-91h-285v-201h263v-91h-263v-226zM336 927h86l-110 -140h-87l-110 140h86l68 -93z" />
    <glyph glyph-name="Ecircumflex" unicode="&#xca;" horiz-adv-x="516" 
d="M171 91h295v-91h-396v700h386v-91h-285v-201h263v-91h-263v-226zM422 787h-86l-67 92l-68 -92h-86l110 140h87z" />
    <glyph glyph-name="Edieresis" unicode="&#xcb;" horiz-adv-x="516" 
d="M171 91h295v-91h-396v700h386v-91h-285v-201h263v-91h-263v-226zM169 905c32 0 58 -25 58 -57s-26 -58 -58 -58s-57 26 -57 58s25 57 57 57zM367 905c32 0 58 -25 58 -57s-26 -58 -58 -58c-31 0 -57 26 -57 58s26 57 57 57z" />
    <glyph glyph-name="Egrave" unicode="&#xc8;" horiz-adv-x="516" 
d="M171 91h295v-91h-396v700h386v-91h-285v-201h263v-91h-263v-226zM244 927l66 -140h-67l-97 140h98z" />
    <glyph glyph-name="Emacron" unicode="&#x112;" horiz-adv-x="516" 
d="M171 91h295v-91h-396v700h386v-91h-285v-201h263v-91h-263v-226zM132 879h273v-71h-273v71z" />
    <glyph glyph-name="Gbreve" unicode="&#x11e;" horiz-adv-x="782" 
d="M410 378h312v-378h-64l-9 114c-48 -79 -129 -127 -248 -127c-208 0 -356 158 -356 363s148 362 356 362c116 0 214 -49 278 -129l-84 -55c-43 54 -109 91 -194 91c-164 0 -254 -133 -254 -269s90 -269 254 -269c146 0 226 91 242 206h-233v91zM474 914h69
c-3 -78 -58 -132 -143 -132s-140 54 -144 132h69c0 -28 21 -69 75 -69s74 41 74 69z" />
    <glyph glyph-name="Gcircumflex" unicode="&#x11c;" horiz-adv-x="782" 
d="M410 378h312v-378h-64l-9 114c-48 -79 -129 -127 -248 -127c-208 0 -356 158 -356 363s148 362 356 362c116 0 214 -49 278 -129l-84 -55c-43 54 -109 91 -194 91c-164 0 -254 -133 -254 -269s90 -269 254 -269c146 0 226 91 242 206h-233v91zM553 787h-86l-67 92
l-68 -92h-86l110 140h87z" />
    <glyph glyph-name="Gcommaaccent" unicode="&#x122;" horiz-adv-x="782" 
d="M410 378h312v-378h-64l-9 114c-48 -79 -129 -127 -248 -127c-208 0 -356 158 -356 363s148 362 356 362c116 0 214 -49 278 -129l-84 -55c-43 54 -109 91 -194 91c-164 0 -254 -133 -254 -269s90 -269 254 -269c146 0 226 91 242 206h-233v91zM348 -91h96l-76 -140h-72z
" />
    <glyph glyph-name="Gdotaccent" unicode="&#x120;" horiz-adv-x="782" 
d="M410 378h312v-378h-64l-9 114c-48 -79 -129 -127 -248 -127c-208 0 -356 158 -356 363s148 362 356 362c116 0 214 -49 278 -129l-84 -55c-43 54 -109 91 -194 91c-164 0 -254 -133 -254 -269s90 -269 254 -269c146 0 226 91 242 206h-233v91zM389 905
c32 0 58 -25 58 -57s-26 -58 -58 -58s-57 26 -57 58s25 57 57 57z" />
    <glyph glyph-name="Hcircumflex" unicode="&#x124;" horiz-adv-x="672" 
d="M502 700h100v-700h-100v307h-332v-307h-100v700h100v-301h332v301zM489 787h-86l-67 92l-68 -92h-86l110 140h87z" />
    <glyph glyph-name="Iacute" unicode="&#xcd;" horiz-adv-x="240" 
d="M70 700h100v-700h-100v700zM154 927h98l-97 -140h-67z" />
    <glyph glyph-name="Ibreve" unicode="&#x12c;" horiz-adv-x="240" 
d="M70 700h100v-700h-100v700zM195 914h69c-3 -78 -58 -132 -143 -132s-140 54 -144 132h69c0 -28 21 -69 75 -69s74 41 74 69z" />
    <glyph glyph-name="Icircumflex" unicode="&#xce;" horiz-adv-x="240" 
d="M70 700h100v-700h-100v700zM274 787h-86l-67 92l-68 -92h-86l110 140h87z" />
    <glyph glyph-name="Idieresis" unicode="&#xcf;" horiz-adv-x="240" 
d="M70 700h100v-700h-100v700zM21 905c32 0 58 -25 58 -57s-26 -58 -58 -58s-57 26 -57 58s25 57 57 57zM219 905c32 0 58 -25 58 -57s-26 -58 -58 -58c-31 0 -57 26 -57 58s26 57 57 57z" />
    <glyph glyph-name="Idotaccent" unicode="&#x130;" horiz-adv-x="240" 
d="M70 700h100v-700h-100v700zM120 905c32 0 58 -25 58 -57s-26 -58 -58 -58s-57 26 -57 58s25 57 57 57z" />
    <glyph glyph-name="Igrave" unicode="&#xcc;" horiz-adv-x="240" 
d="M70 700h100v-700h-100v700zM86 927l66 -140h-67l-97 140h98z" />
    <glyph glyph-name="Imacron" unicode="&#x12a;" horiz-adv-x="240" 
d="M70 700h100v-700h-100v700zM-16 879h273v-71h-273v71z" />
    <glyph glyph-name="Itilde" unicode="&#x128;" horiz-adv-x="240" 
d="M70 700h100v-700h-100v700zM212 885l60 -11c-8 -60 -36 -91 -85 -91s-84 33 -122 33c-25 0 -34 -23 -36 -41l-60 11c10 62 39 91 86 91c45 0 82 -33 121 -33c29 0 34 24 36 41z" />
    <glyph glyph-name="IJ" unicode="&#x132;" horiz-adv-x="778" 
d="M70 700h100v-700h-100v700zM608 700h100v-474c0 -137 -62 -239 -230 -239c-145 0 -229 85 -238 196l101 19c5 -52 38 -121 137 -121c107 0 130 76 130 145v474z" />
    <glyph glyph-name="Jcircumflex" unicode="&#x134;" horiz-adv-x="568" 
d="M398 700h100v-474c0 -137 -62 -239 -230 -239c-145 0 -229 85 -238 196l101 19c5 -52 38 -121 137 -121c107 0 130 76 130 145v474zM597 787h-86l-67 92l-68 -92h-86l110 140h87z" />
    <glyph glyph-name="Kcommaaccent" unicode="&#x136;" horiz-adv-x="603" 
d="M583 0h-129l-284 327v-327h-100v700h100v-335l268 335h119l-281 -346zM264 -91h96l-76 -140h-72z" />
    <glyph glyph-name="Lacute" unicode="&#x139;" horiz-adv-x="498" 
d="M170 91h288v-91h-388v700h100v-609zM158 927h98l-97 -140h-67z" />
    <glyph glyph-name="Lcaron" unicode="&#x13d;" horiz-adv-x="498" 
d="M295 700h96l-76 -140h-72zM170 91h288v-91h-388v700h100v-609z" />
    <glyph glyph-name="Lcommaaccent" unicode="&#x13b;" horiz-adv-x="498" 
d="M170 91h288v-91h-388v700h100v-609zM222 -91h96l-76 -140h-72z" />
    <glyph glyph-name="Nacute" unicode="&#x143;" horiz-adv-x="690" 
d="M520 700h100v-700h-87l-363 516v-516h-100v700h87l363 -516v516zM379 927h98l-97 -140h-67z" />
    <glyph glyph-name="Ncaron" unicode="&#x147;" horiz-adv-x="690" 
d="M520 700h100v-700h-87l-363 516v-516h-100v700h87l363 -516v516zM413 927h86l-110 -140h-87l-110 140h86l68 -93z" />
    <glyph glyph-name="Ncommaaccent" unicode="&#x145;" horiz-adv-x="690" 
d="M520 700h100v-700h-87l-363 516v-516h-100v700h87l363 -516v516zM303 -91h96l-76 -140h-72z" />
    <glyph glyph-name="Ntilde" unicode="&#xd1;" horiz-adv-x="690" 
d="M520 700h100v-700h-87l-363 516v-516h-100v700h87l363 -516v516zM437 885l60 -11c-8 -60 -36 -91 -85 -91s-84 33 -122 33c-25 0 -34 -23 -36 -41l-60 11c10 62 39 91 86 91c45 0 82 -33 121 -33c29 0 34 24 36 41z" />
    <glyph glyph-name="Oacute" unicode="&#xd3;" horiz-adv-x="801" 
d="M401 712c207 0 355 -157 355 -362s-148 -363 -355 -363c-208 0 -356 158 -356 363s148 362 356 362zM401 81c163 0 254 133 254 269s-91 269 -254 269s-254 -133 -254 -269s91 -269 254 -269zM424 927h98l-97 -140h-67z" />
    <glyph glyph-name="Obreve" unicode="&#x14e;" horiz-adv-x="801" 
d="M401 712c207 0 355 -157 355 -362s-148 -363 -355 -363c-208 0 -356 158 -356 363s148 362 356 362zM401 81c163 0 254 133 254 269s-91 269 -254 269s-254 -133 -254 -269s91 -269 254 -269zM475 914h69c-3 -78 -58 -132 -143 -132s-140 54 -144 132h69
c0 -28 21 -69 75 -69s74 41 74 69z" />
    <glyph glyph-name="Ocircumflex" unicode="&#xd4;" horiz-adv-x="801" 
d="M401 712c207 0 355 -157 355 -362s-148 -363 -355 -363c-208 0 -356 158 -356 363s148 362 356 362zM401 81c163 0 254 133 254 269s-91 269 -254 269s-254 -133 -254 -269s91 -269 254 -269zM554 787h-86l-67 92l-68 -92h-86l110 140h87z" />
    <glyph glyph-name="Odieresis" unicode="&#xd6;" horiz-adv-x="801" 
d="M401 712c207 0 355 -157 355 -362s-148 -363 -355 -363c-208 0 -356 158 -356 363s148 362 356 362zM401 81c163 0 254 133 254 269s-91 269 -254 269s-254 -133 -254 -269s91 -269 254 -269zM301 905c32 0 58 -25 58 -57s-26 -58 -58 -58s-57 26 -57 58s25 57 57 57z
M499 905c32 0 58 -25 58 -57s-26 -58 -58 -58c-31 0 -57 26 -57 58s26 57 57 57z" />
    <glyph glyph-name="Ograve" unicode="&#xd2;" horiz-adv-x="801" 
d="M401 712c207 0 355 -157 355 -362s-148 -363 -355 -363c-208 0 -356 158 -356 363s148 362 356 362zM401 81c163 0 254 133 254 269s-91 269 -254 269s-254 -133 -254 -269s91 -269 254 -269zM376 927l66 -140h-67l-97 140h98z" />
    <glyph glyph-name="Ohungarumlaut" unicode="&#x150;" horiz-adv-x="801" 
d="M401 712c207 0 355 -157 355 -362s-148 -363 -355 -363c-208 0 -356 158 -356 363s148 362 356 362zM401 81c163 0 254 133 254 269s-91 269 -254 269s-254 -133 -254 -269s91 -269 254 -269zM274 787l66 140h98l-97 -140h-67zM508 927h99l-97 -140h-67z" />
    <glyph glyph-name="Omacron" unicode="&#x14c;" horiz-adv-x="801" 
d="M401 712c207 0 355 -157 355 -362s-148 -363 -355 -363c-208 0 -356 158 -356 363s148 362 356 362zM401 81c163 0 254 133 254 269s-91 269 -254 269s-254 -133 -254 -269s91 -269 254 -269zM264 879h273v-71h-273v71z" />
    <glyph glyph-name="Oslashacute" unicode="&#x1fe;" horiz-adv-x="801" 
d="M691 566c42 -60 65 -134 65 -216c0 -205 -148 -363 -355 -363c-97 0 -181 35 -243 92l-61 -55l-48 53l62 57c-42 59 -66 134 -66 216c0 205 149 362 356 362c97 0 181 -34 243 -92l61 56l49 -54zM147 350c0 -52 13 -104 39 -148l385 352c-42 39 -99 65 -170 65
c-163 0 -254 -133 -254 -269zM401 81c163 0 254 133 254 269c0 52 -14 103 -39 147l-385 -351c42 -40 99 -65 170 -65zM424 927h98l-97 -140h-67z" />
    <glyph glyph-name="Otilde" unicode="&#xd5;" horiz-adv-x="801" 
d="M401 712c207 0 355 -157 355 -362s-148 -363 -355 -363c-208 0 -356 158 -356 363s148 362 356 362zM401 81c163 0 254 133 254 269s-91 269 -254 269s-254 -133 -254 -269s91 -269 254 -269zM492 885l60 -11c-8 -60 -36 -91 -85 -91s-84 33 -122 33
c-25 0 -34 -23 -36 -41l-60 11c10 62 39 91 86 91c45 0 82 -33 121 -33c29 0 34 24 36 41z" />
    <glyph glyph-name="Racute" unicode="&#x154;" horiz-adv-x="598" 
d="M578 0h-120l-145 271c-8 -1 -17 -1 -27 -1h-116v-270h-100v700h216c160 0 252 -94 252 -215c0 -85 -45 -156 -126 -191zM170 361h116c97 0 149 49 149 124s-52 124 -149 124h-116v-248zM308 927h98l-97 -140h-67z" />
    <glyph glyph-name="Rcaron" unicode="&#x158;" horiz-adv-x="598" 
d="M578 0h-120l-145 271c-8 -1 -17 -1 -27 -1h-116v-270h-100v700h216c160 0 252 -94 252 -215c0 -85 -45 -156 -126 -191zM170 361h116c97 0 149 49 149 124s-52 124 -149 124h-116v-248zM361 927h86l-110 -140h-87l-110 140h86l68 -93z" />
    <glyph glyph-name="Rcommaaccent" unicode="&#x156;" horiz-adv-x="598" 
d="M578 0h-120l-145 271c-8 -1 -17 -1 -27 -1h-116v-270h-100v700h216c160 0 252 -94 252 -215c0 -85 -45 -156 -126 -191zM170 361h116c97 0 149 49 149 124s-52 124 -149 124h-116v-248zM272 -91h96l-76 -140h-72z" />
    <glyph glyph-name="Sacute" unicode="&#x15a;" horiz-adv-x="559" 
d="M332 388c136 -32 197 -81 197 -194c0 -98 -67 -207 -247 -207c-107 0 -218 48 -252 158l99 31c10 -46 62 -95 155 -95c76 0 143 33 143 105c0 95 -85 99 -196 126c-141 34 -173 108 -173 199c0 118 101 201 231 201c100 0 183 -54 212 -151l-98 -24
c-14 42 -50 82 -124 82c-67 0 -121 -41 -121 -108c0 -89 85 -103 174 -123zM303 927h98l-97 -140h-67z" />
    <glyph glyph-name="Scircumflex" unicode="&#x15c;" horiz-adv-x="558" 
d="M332 388c136 -32 197 -81 197 -194c0 -98 -67 -207 -247 -207c-107 0 -218 48 -252 158l99 31c10 -46 62 -95 155 -95c76 0 143 33 143 105c0 95 -85 99 -196 126c-141 34 -173 108 -173 199c0 118 101 201 231 201c100 0 183 -54 212 -151l-98 -24
c-14 42 -50 82 -124 82c-67 0 -121 -41 -121 -108c0 -89 85 -103 174 -123zM433 787h-86l-67 92l-68 -92h-86l110 140h87z" />
    <glyph glyph-name="Scommaaccent" unicode="&#x218;" horiz-adv-x="561" 
d="M332 388c136 -32 197 -81 197 -194c0 -98 -67 -207 -247 -207c-107 0 -218 48 -252 158l99 31c10 -46 62 -95 155 -95c76 0 143 33 143 105c0 95 -85 99 -196 126c-141 34 -173 108 -173 199c0 118 101 201 231 201c100 0 183 -54 212 -151l-98 -24
c-14 42 -50 82 -124 82c-67 0 -121 -41 -121 -108c0 -89 85 -103 174 -123zM231 -91h96l-76 -140h-72z" />
    <glyph glyph-name="Tcaron" unicode="&#x164;" horiz-adv-x="534" 
d="M494 700v-91h-177v-609h-100v609h-177v91h454zM334 927h86l-110 -140h-87l-110 140h86l68 -93z" />
    <glyph glyph-name="Tcommaaccent" unicode="&#x162;" horiz-adv-x="534" 
d="M494 700v-91h-177v-609h-100v609h-177v91h454zM215 -91h96l-76 -140h-72z" />
    <glyph glyph-name="Uacute" unicode="&#xda;" horiz-adv-x="672" 
d="M501 700h101v-434c0 -182 -96 -279 -266 -279c-171 0 -266 97 -266 279v434h100v-416c0 -150 65 -202 166 -202c100 0 165 52 165 202v416zM360 927h98l-97 -140h-67z" />
    <glyph glyph-name="Ubreve" unicode="&#x16c;" horiz-adv-x="672" 
d="M501 700h101v-434c0 -182 -96 -279 -266 -279c-171 0 -266 97 -266 279v434h100v-416c0 -150 65 -202 166 -202c100 0 165 52 165 202v416zM411 914h69c-3 -78 -58 -132 -143 -132s-140 54 -144 132h69c0 -28 21 -69 75 -69s74 41 74 69z" />
    <glyph glyph-name="Ucircumflex" unicode="&#xdb;" horiz-adv-x="672" 
d="M501 700h101v-434c0 -182 -96 -279 -266 -279c-171 0 -266 97 -266 279v434h100v-416c0 -150 65 -202 166 -202c100 0 165 52 165 202v416zM489 787h-86l-67 92l-68 -92h-86l110 140h87z" />
    <glyph glyph-name="Udieresis" unicode="&#xdc;" horiz-adv-x="672" 
d="M501 700h101v-434c0 -182 -96 -279 -266 -279c-171 0 -266 97 -266 279v434h100v-416c0 -150 65 -202 166 -202c100 0 165 52 165 202v416zM237 905c32 0 58 -25 58 -57s-26 -58 -58 -58s-57 26 -57 58s25 57 57 57zM435 905c32 0 58 -25 58 -57s-26 -58 -58 -58
c-31 0 -57 26 -57 58s26 57 57 57z" />
    <glyph glyph-name="Ugrave" unicode="&#xd9;" horiz-adv-x="672" 
d="M501 700h101v-434c0 -182 -96 -279 -266 -279c-171 0 -266 97 -266 279v434h100v-416c0 -150 65 -202 166 -202c100 0 165 52 165 202v416zM322 927l66 -140h-67l-97 140h98z" />
    <glyph glyph-name="Umacron" unicode="&#x16a;" horiz-adv-x="672" 
d="M501 700h101v-434c0 -182 -96 -279 -266 -279c-171 0 -266 97 -266 279v434h100v-416c0 -150 65 -202 166 -202c100 0 165 52 165 202v416zM200 879h273v-71h-273v71z" />
    <glyph glyph-name="Uring" unicode="&#x16e;" horiz-adv-x="672" 
d="M501 700h101v-434c0 -182 -96 -279 -266 -279c-171 0 -266 97 -266 279v434h100v-416c0 -150 65 -202 166 -202c100 0 165 52 165 202v416zM336 966c61 0 109 -49 109 -109s-48 -109 -109 -109c-60 0 -109 49 -109 109s49 109 109 109zM336 801c31 0 56 25 56 56
c0 30 -25 55 -56 55c-30 0 -55 -25 -55 -55c0 -31 25 -56 55 -56z" />
    <glyph glyph-name="Utilde" unicode="&#x168;" horiz-adv-x="672" 
d="M501 700h101v-434c0 -182 -96 -279 -266 -279c-171 0 -266 97 -266 279v434h100v-416c0 -150 65 -202 166 -202c100 0 165 52 165 202v416zM428 885l60 -11c-8 -60 -36 -91 -85 -91s-84 33 -122 33c-25 0 -34 -23 -36 -41l-60 11c10 62 39 91 86 91c45 0 82 -33 121 -33
c29 0 34 24 36 41z" />
    <glyph glyph-name="Wacute" unicode="&#x1e82;" horiz-adv-x="988" 
d="M859 700h109l-226 -700h-95l-153 496l-154 -496h-95l-225 700h108l165 -543l166 543h69l166 -543zM538 927h98l-97 -140h-67z" />
    <glyph glyph-name="Wcircumflex" unicode="&#x174;" horiz-adv-x="988" 
d="M859 700h109l-226 -700h-95l-153 496l-154 -496h-95l-225 700h108l165 -543l166 543h69l166 -543zM648 787h-86l-67 92l-68 -92h-86l110 140h87z" />
    <glyph glyph-name="Wdieresis" unicode="&#x1e84;" horiz-adv-x="988" 
d="M859 700h109l-226 -700h-95l-153 496l-154 -496h-95l-225 700h108l165 -543l166 543h69l166 -543zM395 905c32 0 58 -25 58 -57s-26 -58 -58 -58s-57 26 -57 58s25 57 57 57zM593 905c32 0 58 -25 58 -57s-26 -58 -58 -58c-31 0 -57 26 -57 58s26 57 57 57z" />
    <glyph glyph-name="Wgrave" unicode="&#x1e80;" horiz-adv-x="988" 
d="M859 700h109l-226 -700h-95l-153 496l-154 -496h-95l-225 700h108l165 -543l166 543h69l166 -543zM460 927l66 -140h-67l-97 140h98z" />
    <glyph glyph-name="Yacute" unicode="&#xdd;" horiz-adv-x="662" 
d="M642 700l-261 -438v-262h-100v262l-261 438h112l199 -348l198 348h113zM365 927h98l-97 -140h-67z" />
    <glyph glyph-name="Ycircumflex" unicode="&#x176;" horiz-adv-x="662" 
d="M642 700l-261 -438v-262h-100v262l-261 438h112l199 -348l198 348h113zM485 787h-86l-67 92l-68 -92h-86l110 140h87z" />
    <glyph glyph-name="Ydieresis" unicode="&#x178;" horiz-adv-x="662" 
d="M642 700l-261 -438v-262h-100v262l-261 438h112l199 -348l198 348h113zM232 905c32 0 58 -25 58 -57s-26 -58 -58 -58s-57 26 -57 58s25 57 57 57zM430 905c32 0 58 -25 58 -57s-26 -58 -58 -58c-31 0 -57 26 -57 58s26 57 57 57z" />
    <glyph glyph-name="Ygrave" unicode="&#x1ef2;" horiz-adv-x="662" 
d="M642 700l-261 -438v-262h-100v262l-261 438h112l199 -348l198 348h113zM307 927l66 -140h-67l-97 140h98z" />
    <glyph glyph-name="Zacute" unicode="&#x179;" horiz-adv-x="574" 
d="M170 91h364v-91h-494v73l364 536h-347v91h468v-74zM301 927h98l-97 -140h-67z" />
    <glyph glyph-name="Zcaron" unicode="&#x17d;" horiz-adv-x="574" 
d="M170 91h364v-91h-494v73l364 536h-347v91h468v-74zM355 927h86l-110 -140h-87l-110 140h86l68 -93z" />
    <glyph glyph-name="Zdotaccent" unicode="&#x17b;" horiz-adv-x="574" 
d="M170 91h364v-91h-494v73l364 536h-347v91h468v-74zM287 905c32 0 58 -25 58 -57s-26 -58 -58 -58s-57 26 -57 58s25 57 57 57z" />
    <glyph glyph-name="aacute" unicode="&#xe1;" horiz-adv-x="537" 
d="M278 519c146 0 194 -92 194 -213v-306h-91v70c-23 -39 -86 -83 -166 -83c-96 0 -180 58 -180 149c0 159 193 163 264 163h82c0 77 -16 137 -121 137c-53 0 -109 -27 -131 -45l-64 49c56 51 133 79 213 79zM381 145v83h-35c-94 0 -217 1 -217 -88c0 -39 25 -79 106 -79
c87 0 140 61 146 84zM287 727h98l-97 -140h-67z" />
    <glyph glyph-name="abreve" unicode="&#x103;" horiz-adv-x="537" 
d="M278 519c146 0 194 -92 194 -213v-306h-91v70c-23 -39 -86 -83 -166 -83c-96 0 -180 58 -180 149c0 159 193 163 264 163h82c0 77 -16 137 -121 137c-53 0 -109 -27 -131 -45l-64 49c56 51 133 79 213 79zM381 145v83h-35c-94 0 -217 1 -217 -88c0 -39 25 -79 106 -79
c87 0 140 61 146 84zM348 714h69c-3 -78 -58 -132 -143 -132s-140 54 -144 132h69c0 -28 21 -69 75 -69s74 41 74 69z" />
    <glyph glyph-name="acircumflex" unicode="&#xe2;" horiz-adv-x="537" 
d="M278 519c146 0 194 -92 194 -213v-306h-91v70c-23 -39 -86 -83 -166 -83c-96 0 -180 58 -180 149c0 159 193 163 264 163h82c0 77 -16 137 -121 137c-53 0 -109 -27 -131 -45l-64 49c56 51 133 79 213 79zM381 145v83h-35c-94 0 -217 1 -217 -88c0 -39 25 -79 106 -79
c87 0 140 61 146 84zM427 587h-86l-67 92l-68 -92h-86l110 140h87z" />
    <glyph glyph-name="adieresis" unicode="&#xe4;" horiz-adv-x="537" 
d="M278 519c146 0 194 -92 194 -213v-306h-91v70c-23 -39 -86 -83 -166 -83c-96 0 -180 58 -180 149c0 159 193 163 264 163h82c0 77 -16 137 -121 137c-53 0 -109 -27 -131 -45l-64 49c56 51 133 79 213 79zM381 145v83h-35c-94 0 -217 1 -217 -88c0 -39 25 -79 106 -79
c87 0 140 61 146 84zM174 705c32 0 58 -25 58 -57s-26 -58 -58 -58s-57 26 -57 58s25 57 57 57zM372 705c32 0 58 -25 58 -57s-26 -58 -58 -58c-31 0 -57 26 -57 58s26 57 57 57z" />
    <glyph glyph-name="agrave" unicode="&#xe0;" horiz-adv-x="537" 
d="M278 519c146 0 194 -92 194 -213v-306h-91v70c-23 -39 -86 -83 -166 -83c-96 0 -180 58 -180 149c0 159 193 163 264 163h82c0 77 -16 137 -121 137c-53 0 -109 -27 -131 -45l-64 49c56 51 133 79 213 79zM381 145v83h-35c-94 0 -217 1 -217 -88c0 -39 25 -79 106 -79
c87 0 140 61 146 84zM259 727l66 -140h-67l-97 140h98z" />
    <glyph glyph-name="amacron" unicode="&#x101;" horiz-adv-x="537" 
d="M278 519c146 0 194 -92 194 -213v-306h-91v70c-23 -39 -86 -83 -166 -83c-96 0 -180 58 -180 149c0 159 193 163 264 163h82c0 77 -16 137 -121 137c-53 0 -109 -27 -131 -45l-64 49c56 51 133 79 213 79zM381 145v83h-35c-94 0 -217 1 -217 -88c0 -39 25 -79 106 -79
c87 0 140 61 146 84zM137 679h273v-71h-273v71z" />
    <glyph glyph-name="aring" unicode="&#xe5;" horiz-adv-x="537" 
d="M278 519c146 0 194 -92 194 -213v-306h-91v70c-23 -39 -86 -83 -166 -83c-96 0 -180 58 -180 149c0 159 193 163 264 163h82c0 77 -16 137 -121 137c-53 0 -109 -27 -131 -45l-64 49c56 51 133 79 213 79zM381 145v83h-35c-94 0 -217 1 -217 -88c0 -39 25 -79 106 -79
c87 0 140 61 146 84zM273 776c61 0 109 -49 109 -109s-48 -109 -109 -109c-60 0 -109 49 -109 109s49 109 109 109zM273 611c31 0 56 25 56 56c0 30 -25 55 -56 55c-30 0 -55 -25 -55 -55c0 -31 25 -56 55 -56z" />
    <glyph glyph-name="uring" unicode="&#x16f;" 
d="M416 507h91v-507h-91v70c-30 -45 -80 -83 -156 -83c-114 0 -195 95 -195 202v318h91v-291c0 -72 30 -142 125 -142c96 0 135 82 135 142v291zM286 776c61 0 109 -49 109 -109s-48 -109 -109 -109c-60 0 -109 49 -109 109s49 109 109 109zM286 611c31 0 56 25 56 56
c0 30 -25 55 -56 55c-30 0 -55 -25 -55 -55c0 -31 25 -56 55 -56z" />
    <glyph glyph-name="atilde" unicode="&#xe3;" horiz-adv-x="537" 
d="M278 519c146 0 194 -92 194 -213v-306h-91v70c-23 -39 -86 -83 -166 -83c-96 0 -180 58 -180 149c0 159 193 163 264 163h82c0 77 -16 137 -121 137c-53 0 -109 -27 -131 -45l-64 49c56 51 133 79 213 79zM381 145v83h-35c-94 0 -217 1 -217 -88c0 -39 25 -79 106 -79
c87 0 140 61 146 84zM365 685l60 -11c-8 -60 -36 -91 -85 -91s-84 33 -122 33c-25 0 -34 -23 -36 -41l-60 11c10 62 39 91 86 91c45 0 82 -33 121 -33c29 0 34 24 36 41z" />
    <glyph glyph-name="aeacute" unicode="&#x1fd;" horiz-adv-x="901" 
d="M626 519c138 0 260 -116 236 -305h-394c13 -80 67 -140 166 -140c55 0 104 21 133 57l75 -48c-45 -61 -119 -96 -208 -96c-96 0 -166 40 -207 101c-31 -51 -100 -101 -203 -101c-104 0 -189 58 -189 149c0 159 193 156 264 156h82v5c0 78 -16 139 -121 139
c-53 0 -109 -27 -132 -45l-64 49c56 51 134 79 214 79c81 0 131 -39 158 -92c43 56 108 92 190 92zM381 145v76h-35c-94 0 -217 8 -217 -81c0 -39 25 -79 106 -79c87 0 138 49 146 84zM468 292h302c-11 86 -58 141 -144 141c-87 0 -145 -57 -158 -141zM484 727h98l-97 -140
h-67z" />
    <glyph glyph-name="cacute" unicode="&#x107;" horiz-adv-x="546" 
d="M301 74c64 0 117 31 147 81l78 -42c-46 -75 -126 -126 -225 -126c-153 0 -266 120 -266 266s113 266 266 266c99 0 179 -51 225 -125l-78 -43c-30 50 -83 82 -147 82c-100 0 -173 -76 -173 -180c0 -103 73 -179 173 -179zM304 727h98l-97 -140h-67z" />
    <glyph glyph-name="ccaron" unicode="&#x10d;" horiz-adv-x="546" 
d="M301 74c64 0 117 31 147 81l78 -42c-46 -75 -126 -126 -225 -126c-153 0 -266 120 -266 266s113 266 266 266c99 0 179 -51 225 -125l-78 -43c-30 50 -83 82 -147 82c-100 0 -173 -76 -173 -180c0 -103 73 -179 173 -179zM358 727h86l-110 -140h-87l-110 140h86l68 -93z
" />
    <glyph glyph-name="ccircumflex" unicode="&#x109;" horiz-adv-x="546" 
d="M301 74c64 0 117 31 147 81l78 -42c-46 -75 -126 -126 -225 -126c-153 0 -266 120 -266 266s113 266 266 266c99 0 179 -51 225 -125l-78 -43c-30 50 -83 82 -147 82c-100 0 -173 -76 -173 -180c0 -103 73 -179 173 -179zM444 587h-86l-67 92l-68 -92h-86l110 140h87z
" />
    <glyph glyph-name="cdotaccent" unicode="&#x10b;" horiz-adv-x="546" 
d="M301 74c64 0 117 31 147 81l78 -42c-46 -75 -126 -126 -225 -126c-153 0 -266 120 -266 266s113 266 266 266c99 0 179 -51 225 -125l-78 -43c-30 50 -83 82 -147 82c-100 0 -173 -76 -173 -180c0 -103 73 -179 173 -179zM290 705c32 0 58 -25 58 -57s-26 -58 -58 -58
s-57 26 -57 58s25 57 57 57z" />
    <glyph glyph-name="eacute" unicode="&#xe9;" horiz-adv-x="573" 
d="M292 519c138 0 267 -116 243 -305h-403c14 -83 76 -140 175 -140c55 0 105 21 133 57l75 -48c-45 -61 -119 -96 -208 -96c-168 0 -272 120 -272 266s108 266 257 266zM132 292h311c-12 86 -65 141 -151 141c-87 0 -146 -57 -160 -141zM310 727h98l-97 -140h-67z" />
    <glyph glyph-name="ebreve" unicode="&#x115;" horiz-adv-x="573" 
d="M292 519c138 0 267 -116 243 -305h-403c14 -83 76 -140 175 -140c55 0 105 21 133 57l75 -48c-45 -61 -119 -96 -208 -96c-168 0 -272 120 -272 266s108 266 257 266zM132 292h311c-12 86 -65 141 -151 141c-87 0 -146 -57 -160 -141zM361 714h69
c-3 -78 -58 -132 -143 -132s-140 54 -144 132h69c0 -28 21 -69 75 -69s74 41 74 69z" />
    <glyph glyph-name="ecaron" unicode="&#x11b;" horiz-adv-x="573" 
d="M292 519c138 0 267 -116 243 -305h-403c14 -83 76 -140 175 -140c55 0 105 21 133 57l75 -48c-45 -61 -119 -96 -208 -96c-168 0 -272 120 -272 266s108 266 257 266zM132 292h311c-12 86 -65 141 -151 141c-87 0 -146 -57 -160 -141zM354 727h86l-110 -140h-87l-110 140
h86l68 -93z" />
    <glyph glyph-name="ecircumflex" unicode="&#xea;" horiz-adv-x="573" 
d="M292 519c138 0 267 -116 243 -305h-403c14 -83 76 -140 175 -140c55 0 105 21 133 57l75 -48c-45 -61 -119 -96 -208 -96c-168 0 -272 120 -272 266s108 266 257 266zM132 292h311c-12 86 -65 141 -151 141c-87 0 -146 -57 -160 -141zM440 587h-86l-67 92l-68 -92h-86
l110 140h87z" />
    <glyph glyph-name="edieresis" unicode="&#xeb;" horiz-adv-x="573" 
d="M292 519c138 0 267 -116 243 -305h-403c14 -83 76 -140 175 -140c55 0 105 21 133 57l75 -48c-45 -61 -119 -96 -208 -96c-168 0 -272 120 -272 266s108 266 257 266zM132 292h311c-12 86 -65 141 -151 141c-87 0 -146 -57 -160 -141zM187 705c32 0 58 -25 58 -57
s-26 -58 -58 -58s-57 26 -57 58s25 57 57 57zM385 705c32 0 58 -25 58 -57s-26 -58 -58 -58c-31 0 -57 26 -57 58s26 57 57 57z" />
    <glyph glyph-name="edotaccent" unicode="&#x117;" horiz-adv-x="573" 
d="M292 519c138 0 267 -116 243 -305h-403c14 -83 76 -140 175 -140c55 0 105 21 133 57l75 -48c-45 -61 -119 -96 -208 -96c-168 0 -272 120 -272 266s108 266 257 266zM132 292h311c-12 86 -65 141 -151 141c-87 0 -146 -57 -160 -141zM286 705c32 0 58 -25 58 -57
s-26 -58 -58 -58s-57 26 -57 58s25 57 57 57z" />
    <glyph glyph-name="egrave" unicode="&#xe8;" horiz-adv-x="573" 
d="M292 519c138 0 267 -116 243 -305h-403c14 -83 76 -140 175 -140c55 0 105 21 133 57l75 -48c-45 -61 -119 -96 -208 -96c-168 0 -272 120 -272 266s108 266 257 266zM132 292h311c-12 86 -65 141 -151 141c-87 0 -146 -57 -160 -141zM272 727l66 -140h-67l-97 140h98z
" />
    <glyph glyph-name="emacron" unicode="&#x113;" horiz-adv-x="573" 
d="M292 519c138 0 267 -116 243 -305h-403c14 -83 76 -140 175 -140c55 0 105 21 133 57l75 -48c-45 -61 -119 -96 -208 -96c-168 0 -272 120 -272 266s108 266 257 266zM132 292h311c-12 86 -65 141 -151 141c-87 0 -146 -57 -160 -141zM150 679h273v-71h-273v71z" />
    <glyph glyph-name="gbreve" unicode="&#x11f;" horiz-adv-x="617" 
d="M460 507h92v-454c0 -144 -77 -255 -260 -255c-100 0 -189 40 -230 102l78 46c19 -28 68 -62 152 -62c121 0 168 77 168 178v39c-34 -49 -89 -87 -172 -87c-149 0 -253 127 -253 253c0 125 104 252 253 252c83 0 138 -38 172 -86v74zM297 100c97 0 163 71 163 167
c0 95 -66 166 -163 166c-95 0 -168 -71 -168 -166c0 -96 73 -167 168 -167zM378 714h69c-3 -78 -58 -132 -143 -132s-140 54 -144 132h69c0 -28 21 -69 75 -69s74 41 74 69z" />
    <glyph glyph-name="gcircumflex" unicode="&#x11d;" horiz-adv-x="617" 
d="M460 507h92v-454c0 -144 -77 -255 -260 -255c-100 0 -189 40 -230 102l78 46c19 -28 68 -62 152 -62c121 0 168 77 168 178v39c-34 -49 -89 -87 -172 -87c-149 0 -253 127 -253 253c0 125 104 252 253 252c83 0 138 -38 172 -86v74zM297 100c97 0 163 71 163 167
c0 95 -66 166 -163 166c-95 0 -168 -71 -168 -166c0 -96 73 -167 168 -167zM457 587h-86l-67 92l-68 -92h-86l110 140h87z" />
    <glyph glyph-name="gcommaaccent" unicode="&#x123;" horiz-adv-x="617" 
d="M460 507h92v-454c0 -144 -77 -255 -260 -255c-100 0 -189 40 -230 102l78 46c19 -28 68 -62 152 -62c121 0 168 77 168 178v39c-34 -49 -89 -87 -172 -87c-149 0 -253 127 -253 253c0 125 104 252 253 252c83 0 138 -38 172 -86v74zM297 100c97 0 163 71 163 167
c0 95 -66 166 -163 166c-95 0 -168 -71 -168 -166c0 -96 73 -167 168 -167zM352 587h-96l76 140h72z" />
    <glyph glyph-name="gdotaccent" unicode="&#x121;" horiz-adv-x="617" 
d="M460 507h92v-454c0 -144 -77 -255 -260 -255c-100 0 -189 40 -230 102l78 46c19 -28 68 -62 152 -62c121 0 168 77 168 178v39c-34 -49 -89 -87 -172 -87c-149 0 -253 127 -253 253c0 125 104 252 253 252c83 0 138 -38 172 -86v74zM297 100c97 0 163 71 163 167
c0 95 -66 166 -163 166c-95 0 -168 -71 -168 -166c0 -96 73 -167 168 -167zM303 705c32 0 58 -25 58 -57s-26 -58 -58 -58s-57 26 -57 58s25 57 57 57z" />
    <glyph glyph-name="hcircumflex" unicode="&#x125;" horiz-adv-x="573" 
d="M313 519c114 0 195 -95 195 -202v-317h-92v291c0 71 -30 142 -125 142c-96 0 -135 -83 -135 -142v-291h-91v700h91v-264c30 45 80 83 157 83zM399 787h-86l-67 92l-68 -92h-86l110 140h87z" />
    <glyph glyph-name="dotlessi" unicode="&#x131;" horiz-adv-x="222" 
d="M65 0v507h92v-507h-92z" />
    <glyph glyph-name="iacute" unicode="&#xed;" horiz-adv-x="222" 
d="M65 0v507h92v-507h-92zM145 727h98l-97 -140h-67z" />
    <glyph glyph-name="ibreve" unicode="&#x12d;" horiz-adv-x="222" 
d="M65 0v507h92v-507h-92zM186 714h69c-3 -78 -58 -132 -143 -132s-140 54 -144 132h69c0 -28 21 -69 75 -69s74 41 74 69z" />
    <glyph glyph-name="icircumflex" unicode="&#xee;" horiz-adv-x="222" 
d="M65 0v507h92v-507h-92zM265 587h-86l-67 92l-68 -92h-86l110 140h87z" />
    <glyph glyph-name="idieresis" unicode="&#xef;" horiz-adv-x="222" 
d="M65 0v507h92v-507h-92zM12 705c32 0 58 -25 58 -57s-26 -58 -58 -58s-57 26 -57 58s25 57 57 57zM210 705c32 0 58 -25 58 -57s-26 -58 -58 -58c-31 0 -57 26 -57 58s26 57 57 57z" />
    <glyph glyph-name="igrave" unicode="&#xec;" horiz-adv-x="222" 
d="M65 0v507h92v-507h-92zM77 727l66 -140h-67l-97 140h98z" />
    <glyph glyph-name="imacron" unicode="&#x12b;" horiz-adv-x="222" 
d="M65 0v507h92v-507h-92zM-25 679h273v-71h-273v71z" />
    <glyph glyph-name="itilde" unicode="&#x129;" horiz-adv-x="222" 
d="M65 0v507h92v-507h-92zM203 685l60 -11c-8 -60 -36 -91 -85 -91s-84 33 -122 33c-25 0 -34 -23 -36 -41l-60 11c10 62 39 91 86 91c45 0 82 -33 121 -33c29 0 34 24 36 41z" />
    <glyph glyph-name="ij" unicode="&#x133;" horiz-adv-x="432" 
d="M65 0v507h92v-507h-92zM111 597c-29 0 -52 23 -52 52c0 28 23 52 52 52s52 -24 52 -52c0 -29 -23 -52 -52 -52zM276 9v498h91v-516c0 -95 -53 -176 -176 -176c-13 0 -24 1 -34 2v81c97 -3 119 43 119 111zM321 597c-28 0 -52 23 -52 52c0 28 24 52 52 52
c29 0 52 -24 52 -52c0 -29 -23 -52 -52 -52z" />
    <glyph glyph-name="jcircumflex" unicode="&#x135;" horiz-adv-x="222" 
d="M66 9v498h91v-516c0 -95 -53 -176 -176 -176c-13 0 -24 1 -34 2v81c97 -3 119 43 119 111zM265 587h-86l-67 92l-68 -92h-86l110 140h87z" />
    <glyph glyph-name="kcommaaccent" unicode="&#x137;" horiz-adv-x="502" 
d="M254 270l228 -270h-119l-207 243v-243h-91v700h91v-419l184 226h111zM221 -91h96l-76 -140h-72z" />
    <glyph glyph-name="kgreenlandic" unicode="&#x138;" horiz-adv-x="502" 
d="M254 270l228 -270h-119l-207 243v-243h-91v507h91v-226l184 226h111z" />
    <glyph glyph-name="lacute" unicode="&#x13a;" horiz-adv-x="221" 
d="M65 700h91v-700h-91v700zM149 927h98l-97 -140h-67z" />
    <glyph glyph-name="lcommaaccent" unicode="&#x13c;" horiz-adv-x="221" 
d="M65 700h91v-700h-91v700zM59 -91h96l-76 -140h-72z" />
    <glyph glyph-name="nacute" unicode="&#x144;" 
d="M313 519c114 0 194 -95 194 -202v-317h-91v291c0 71 -30 142 -125 142c-96 0 -135 -83 -135 -142v-291h-91v507h91v-71c30 45 80 83 157 83zM310 727h98l-97 -140h-67z" />
    <glyph glyph-name="ncaron" unicode="&#x148;" 
d="M313 519c114 0 194 -95 194 -202v-317h-91v291c0 71 -30 142 -125 142c-96 0 -135 -83 -135 -142v-291h-91v507h91v-71c30 45 80 83 157 83zM353 727h86l-110 -140h-87l-110 140h86l68 -93z" />
    <glyph glyph-name="ncommaaccent" unicode="&#x146;" 
d="M313 519c114 0 194 -95 194 -202v-317h-91v291c0 71 -30 142 -125 142c-96 0 -135 -83 -135 -142v-291h-91v507h91v-71c30 45 80 83 157 83zM254 -91h96l-76 -140h-72z" />
    <glyph glyph-name="ntilde" unicode="&#xf1;" 
d="M313 519c114 0 194 -95 194 -202v-317h-91v291c0 71 -30 142 -125 142c-96 0 -135 -83 -135 -142v-291h-91v507h91v-71c30 45 80 83 157 83zM378 685l60 -11c-8 -60 -36 -91 -85 -91s-84 33 -122 33c-25 0 -34 -23 -36 -41l-60 11c10 62 39 91 86 91c45 0 82 -33 121 -33
c29 0 34 24 36 41z" />
    <glyph glyph-name="oacute" unicode="&#xf3;" horiz-adv-x="602" 
d="M301 519c153 0 266 -120 266 -266s-113 -266 -266 -266s-266 120 -266 266s113 266 266 266zM301 74c100 0 173 76 173 179c0 104 -73 180 -173 180s-172 -76 -172 -180c0 -103 72 -179 172 -179zM325 727h98l-97 -140h-67z" />
    <glyph glyph-name="obreve" unicode="&#x14f;" horiz-adv-x="602" 
d="M301 519c153 0 266 -120 266 -266s-113 -266 -266 -266s-266 120 -266 266s113 266 266 266zM301 74c100 0 173 76 173 179c0 104 -73 180 -173 180s-172 -76 -172 -180c0 -103 72 -179 172 -179zM375 714h69c-3 -78 -58 -132 -143 -132s-140 54 -144 132h69
c0 -28 21 -69 75 -69s74 41 74 69z" />
    <glyph glyph-name="ocircumflex" unicode="&#xf4;" horiz-adv-x="602" 
d="M301 519c153 0 266 -120 266 -266s-113 -266 -266 -266s-266 120 -266 266s113 266 266 266zM301 74c100 0 173 76 173 179c0 104 -73 180 -173 180s-172 -76 -172 -180c0 -103 72 -179 172 -179zM454 587h-86l-67 92l-68 -92h-86l110 140h87z" />
    <glyph glyph-name="odieresis" unicode="&#xf6;" horiz-adv-x="602" 
d="M301 519c153 0 266 -120 266 -266s-113 -266 -266 -266s-266 120 -266 266s113 266 266 266zM301 74c100 0 173 76 173 179c0 104 -73 180 -173 180s-172 -76 -172 -180c0 -103 72 -179 172 -179zM201 705c32 0 58 -25 58 -57s-26 -58 -58 -58s-57 26 -57 58s25 57 57 57
zM399 705c32 0 58 -25 58 -57s-26 -58 -58 -58c-31 0 -57 26 -57 58s26 57 57 57z" />
    <glyph glyph-name="ograve" unicode="&#xf2;" horiz-adv-x="602" 
d="M301 519c153 0 266 -120 266 -266s-113 -266 -266 -266s-266 120 -266 266s113 266 266 266zM301 74c100 0 173 76 173 179c0 104 -73 180 -173 180s-172 -76 -172 -180c0 -103 72 -179 172 -179zM267 727l66 -140h-67l-97 140h98z" />
    <glyph glyph-name="ohungarumlaut" unicode="&#x151;" horiz-adv-x="602" 
d="M301 519c153 0 266 -120 266 -266s-113 -266 -266 -266s-266 120 -266 266s113 266 266 266zM301 74c100 0 173 76 173 179c0 104 -73 180 -173 180s-172 -76 -172 -180c0 -103 72 -179 172 -179zM174 587l66 140h98l-97 -140h-67zM408 727h99l-97 -140h-67z" />
    <glyph glyph-name="omacron" unicode="&#x14d;" horiz-adv-x="602" 
d="M301 519c153 0 266 -120 266 -266s-113 -266 -266 -266s-266 120 -266 266s113 266 266 266zM301 74c100 0 173 76 173 179c0 104 -73 180 -173 180s-172 -76 -172 -180c0 -103 72 -179 172 -179zM165 679h273v-71h-273v71z" />
    <glyph glyph-name="oslashacute" unicode="&#x1ff;" horiz-adv-x="602" 
d="M516 413c32 -45 51 -100 51 -160c0 -146 -113 -266 -266 -266c-70 0 -132 26 -178 67l-51 -46l-36 40l51 46c-33 44 -52 99 -52 159c0 146 113 266 266 266c71 0 132 -25 179 -67l50 46l36 -40zM129 253c0 -37 9 -70 25 -98l260 237c-30 26 -69 41 -113 41
c-100 0 -172 -76 -172 -180zM301 74c100 0 173 76 173 179c0 37 -10 70 -26 98l-260 -237c30 -25 69 -40 113 -40zM325 727h98l-97 -140h-67z" />
    <glyph glyph-name="otilde" unicode="&#xf5;" horiz-adv-x="602" 
d="M301 519c153 0 266 -120 266 -266s-113 -266 -266 -266s-266 120 -266 266s113 266 266 266zM301 74c100 0 173 76 173 179c0 104 -73 180 -173 180s-172 -76 -172 -180c0 -103 72 -179 172 -179zM392 685l60 -11c-8 -60 -36 -91 -85 -91s-84 33 -122 33
c-25 0 -34 -23 -36 -41l-60 11c10 62 39 91 86 91c45 0 82 -33 121 -33c29 0 34 24 36 41z" />
    <glyph glyph-name="racute" unicode="&#x155;" horiz-adv-x="360" 
d="M156 419c34 68 104 100 169 100v-103c-150 18 -169 -96 -169 -189v-227h-91v507h91v-88zM199 727h98l-97 -140h-67z" />
    <glyph glyph-name="rcommaaccent" unicode="&#x157;" horiz-adv-x="360" 
d="M156 419c34 68 104 100 169 100v-103c-150 18 -169 -96 -169 -189v-227h-91v507h91v-88zM59 -91h96l-76 -140h-72z" />
    <glyph glyph-name="sacute" unicode="&#x15b;" horiz-adv-x="453" 
d="M258 294c124 -26 165 -66 165 -142c0 -90 -64 -165 -199 -165c-100 0 -184 40 -204 116l89 30c8 -26 35 -62 117 -62c66 0 103 27 103 72c0 59 -85 59 -155 75c-95 21 -136 67 -136 142c0 93 77 159 187 159c82 0 155 -42 173 -117l-85 -23c-9 28 -39 58 -96 58
c-50 0 -87 -28 -87 -70c0 -57 70 -61 128 -73zM235 727h98l-97 -140h-67z" />
    <glyph glyph-name="scaron" unicode="&#x161;" horiz-adv-x="453" 
d="M258 294c124 -26 165 -66 165 -142c0 -90 -64 -165 -199 -165c-100 0 -184 40 -204 116l89 30c8 -26 35 -62 117 -62c66 0 103 27 103 72c0 59 -85 59 -155 75c-95 21 -136 67 -136 142c0 93 77 159 187 159c82 0 155 -42 173 -117l-85 -23c-9 28 -39 58 -96 58
c-50 0 -87 -28 -87 -70c0 -57 70 -61 128 -73zM289 727h86l-110 -140h-87l-110 140h86l68 -93z" />
    <glyph glyph-name="scircumflex" unicode="&#x15d;" horiz-adv-x="453" 
d="M258 294c124 -26 165 -66 165 -142c0 -90 -64 -165 -199 -165c-100 0 -184 40 -204 116l89 30c8 -26 35 -62 117 -62c66 0 103 27 103 72c0 59 -85 59 -155 75c-95 21 -136 67 -136 142c0 93 77 159 187 159c82 0 155 -42 173 -117l-85 -23c-9 28 -39 58 -96 58
c-50 0 -87 -28 -87 -70c0 -57 70 -61 128 -73zM375 587h-86l-67 92l-68 -92h-86l110 140h87z" />
    <glyph glyph-name="scommaaccent" unicode="&#x219;" horiz-adv-x="453" 
d="M258 294c124 -26 165 -66 165 -142c0 -90 -64 -165 -199 -165c-100 0 -184 40 -204 116l89 30c8 -26 35 -62 117 -62c66 0 103 27 103 72c0 59 -85 59 -155 75c-95 21 -136 67 -136 142c0 93 77 159 187 159c82 0 155 -42 173 -117l-85 -23c-9 28 -39 58 -96 58
c-50 0 -87 -28 -87 -70c0 -57 70 -61 128 -73zM169 -91h96l-76 -140h-72z" />
    <glyph glyph-name="tcommaaccent" unicode="&#x163;" horiz-adv-x="367" 
d="M317 420h-117v-222c0 -72 1 -120 80 -120c15 0 26 1 37 2v-80c-13 -3 -29 -5 -49 -5c-110 0 -159 59 -159 170v255h-79v87h79v106h91v-106h117v-87zM151 -91h96l-76 -140h-72z" />
    <glyph glyph-name="uacute" unicode="&#xfa;" 
d="M416 507h91v-507h-91v70c-30 -45 -80 -83 -156 -83c-114 0 -195 95 -195 202v318h91v-291c0 -72 30 -142 125 -142c96 0 135 82 135 142v291zM310 727h98l-97 -140h-67z" />
    <glyph glyph-name="ubreve" unicode="&#x16d;" 
d="M416 507h91v-507h-91v70c-30 -45 -80 -83 -156 -83c-114 0 -195 95 -195 202v318h91v-291c0 -72 30 -142 125 -142c96 0 135 82 135 142v291zM360 714h69c-3 -78 -58 -132 -143 -132s-140 54 -144 132h69c0 -28 21 -69 75 -69s74 41 74 69z" />
    <glyph glyph-name="ucircumflex" unicode="&#xfb;" 
d="M416 507h91v-507h-91v70c-30 -45 -80 -83 -156 -83c-114 0 -195 95 -195 202v318h91v-291c0 -72 30 -142 125 -142c96 0 135 82 135 142v291zM440 587h-86l-67 92l-68 -92h-86l110 140h87z" />
    <glyph glyph-name="udieresis" unicode="&#xfc;" 
d="M416 507h91v-507h-91v70c-30 -45 -80 -83 -156 -83c-114 0 -195 95 -195 202v318h91v-291c0 -72 30 -142 125 -142c96 0 135 82 135 142v291zM186 705c32 0 58 -25 58 -57s-26 -58 -58 -58s-57 26 -57 58s25 57 57 57zM384 705c32 0 58 -25 58 -57s-26 -58 -58 -58
c-31 0 -57 26 -57 58s26 57 57 57z" />
    <glyph glyph-name="uhungarumlaut" unicode="&#x171;" 
d="M416 507h91v-507h-91v70c-30 -45 -80 -83 -156 -83c-114 0 -195 95 -195 202v318h91v-291c0 -72 30 -142 125 -142c96 0 135 82 135 142v291zM159 587l66 140h98l-97 -140h-67zM393 727h99l-97 -140h-67z" />
    <glyph glyph-name="ugrave" unicode="&#xf9;" 
d="M416 507h91v-507h-91v70c-30 -45 -80 -83 -156 -83c-114 0 -195 95 -195 202v318h91v-291c0 -72 30 -142 125 -142c96 0 135 82 135 142v291zM272 727l66 -140h-67l-97 140h98z" />
    <glyph glyph-name="umacron" unicode="&#x16b;" 
d="M416 507h91v-507h-91v70c-30 -45 -80 -83 -156 -83c-114 0 -195 95 -195 202v318h91v-291c0 -72 30 -142 125 -142c96 0 135 82 135 142v291zM150 679h273v-71h-273v71z" />
    <glyph glyph-name="utilde" unicode="&#x169;" 
d="M416 507h91v-507h-91v70c-30 -45 -80 -83 -156 -83c-114 0 -195 95 -195 202v318h91v-291c0 -72 30 -142 125 -142c96 0 135 82 135 142v291zM378 685l60 -11c-8 -60 -36 -91 -85 -91s-84 33 -122 33c-25 0 -34 -23 -36 -41l-60 11c10 62 39 91 86 91
c45 0 82 -33 121 -33c29 0 34 24 36 41z" />
    <glyph glyph-name="wacute" unicode="&#x1e83;" horiz-adv-x="774" 
d="M653 507h101l-170 -507h-86l-111 345l-110 -345h-86l-171 507h102l113 -374l119 374h66l119 -374zM421 727h98l-97 -140h-67z" />
    <glyph glyph-name="wcircumflex" unicode="&#x175;" horiz-adv-x="774" 
d="M653 507h101l-170 -507h-86l-111 345l-110 -345h-86l-171 507h102l113 -374l119 374h66l119 -374zM541 587h-86l-67 92l-68 -92h-86l110 140h87z" />
    <glyph glyph-name="wdieresis" unicode="&#x1e85;" horiz-adv-x="774" 
d="M653 507h101l-170 -507h-86l-111 345l-110 -345h-86l-171 507h102l113 -374l119 374h66l119 -374zM288 705c32 0 58 -25 58 -57s-26 -58 -58 -58s-57 26 -57 58s25 57 57 57zM486 705c32 0 58 -25 58 -57s-26 -58 -58 -58c-31 0 -57 26 -57 58s26 57 57 57z" />
    <glyph glyph-name="wgrave" unicode="&#x1e81;" horiz-adv-x="774" 
d="M653 507h101l-170 -507h-86l-111 345l-110 -345h-86l-171 507h102l113 -374l119 374h66l119 -374zM353 727l66 -140h-67l-97 140h98z" />
    <glyph glyph-name="yacute" unicode="&#xfd;" horiz-adv-x="537" 
d="M416 507h101l-277 -700h-98l90 219l-212 481h101l156 -366zM302 727h98l-97 -140h-67z" />
    <glyph glyph-name="ycircumflex" unicode="&#x177;" horiz-adv-x="537" 
d="M416 507h101l-277 -700h-98l90 219l-212 481h101l156 -366zM422 587h-86l-67 92l-68 -92h-86l110 140h87z" />
    <glyph glyph-name="ydieresis" unicode="&#xff;" horiz-adv-x="537" 
d="M416 507h101l-277 -700h-98l90 219l-212 481h101l156 -366zM169 705c32 0 58 -25 58 -57s-26 -58 -58 -58s-57 26 -57 58s25 57 57 57zM367 705c32 0 58 -25 58 -57s-26 -58 -58 -58c-31 0 -57 26 -57 58s26 57 57 57z" />
    <glyph glyph-name="ygrave" unicode="&#x1ef3;" horiz-adv-x="537" 
d="M416 507h101l-277 -700h-98l90 219l-212 481h101l156 -366zM244 727l66 -140h-67l-97 140h98z" />
    <glyph glyph-name="zacute" unicode="&#x17a;" horiz-adv-x="474" 
d="M160 86h269v-86h-384v74l259 346h-251v87h367v-74zM251 727h98l-97 -140h-67z" />
    <glyph glyph-name="zcaron" unicode="&#x17e;" horiz-adv-x="474" 
d="M160 86h269v-86h-384v74l259 346h-251v87h367v-74zM305 727h86l-110 -140h-87l-110 140h86l68 -93z" />
    <glyph glyph-name="zdotaccent" unicode="&#x17c;" horiz-adv-x="474" 
d="M160 86h269v-86h-384v74l259 346h-251v87h367v-74zM237 705c32 0 58 -25 58 -57s-26 -58 -58 -58s-57 26 -57 58s25 57 57 57z" />
    <glyph glyph-name="Eth" unicode="&#xd0;" horiz-adv-x="716" 
d="M306 700c237 0 365 -153 365 -350c0 -198 -128 -350 -365 -350h-198v314h-98v71h98v315h198zM306 91c166 0 264 102 264 259s-98 259 -264 259h-98v-224h177v-71h-177v-223h98z" />
    <glyph glyph-name="rcaron" unicode="&#x159;" horiz-adv-x="360" 
d="M156 419c34 68 104 100 169 100v-103c-150 18 -169 -96 -169 -189v-227h-91v507h91v-88zM248 727h86l-110 -140h-87l-110 140h86l68 -93z" />
    <glyph glyph-name="ellipsis" unicode="&#x2026;" horiz-adv-x="675" 
d="M112 112c35 0 63 -28 63 -62c0 -35 -28 -63 -63 -63c-34 0 -62 28 -62 63c0 34 28 62 62 62zM337 112c35 0 63 -28 63 -62c0 -35 -28 -63 -63 -63c-34 0 -62 28 -62 63c0 34 28 62 62 62zM562 112c35 0 63 -28 63 -62c0 -35 -28 -63 -63 -63c-34 0 -62 28 -62 63
c0 34 28 62 62 62z" />
    <glyph glyph-name="A" unicode="A" horiz-adv-x="674" 
d="M546 0l-59 168h-300l-59 -168h-108l260 700h114l260 -700h-108zM219 260h235l-117 333z" />
    </font>
</defs>
</svg>
