<svg xmlns="http://www.w3.org/2000/svg" width="15" height="15" viewBox="0 0 15 15" fill="none">
  <path d="M6.86798 1.1481C7.01765 0.687442 7.66936 0.68744 7.81903 1.1481L9.20117 5.40188C9.26811 5.60789 9.46009 5.74737 9.6767 5.74737H14.1494C14.6338 5.74737 14.8351 6.36718 14.4433 6.65188L10.8248 9.28086C10.6496 9.40819 10.5762 9.63387 10.6432 9.83988L12.0253 14.0937C12.175 14.5543 11.6477 14.9374 11.2559 14.6527L7.6374 12.0237C7.46216 11.8964 7.22486 11.8964 7.04961 12.0237L3.43113 14.6527C3.03927 14.9374 2.51203 14.5543 2.66171 14.0937L4.04385 9.83988C4.11078 9.63387 4.03745 9.40819 3.86221 9.28086L0.243725 6.65188C-0.148132 6.36718 0.0532546 5.74737 0.537616 5.74737H5.01031C5.22692 5.74737 5.4189 5.60789 5.48584 5.40188L6.86798 1.1481Z" fill="#E8BB0E"/>
</svg>